<svg width="632" height="681" viewBox="0 0 632 681" fill="none" xmlns="http://www.w3.org/2000/svg">
<path fill-rule="evenodd" clip-rule="evenodd" d="M629.838 414.812C651.919 281.533 501.291 114.02 342.233 74.8167C193.268 38.0984 88.4057 122.206 -12.5769 213.709C-56.5051 253.497 -104.138 299.658 -110.351 356.343C-116.651 413.906 -75.7274 451.969 -46.6752 497.194C-22.4068 534.965 -18.8482 586.154 23.7383 612.231C70.0585 640.559 137.409 642.079 193.209 642.927C334.853 645.032 598.773 602.321 629.838 414.812Z" fill="#D0DBCC"/>
<path d="M146.795 37.3379C201.618 4.67298 262.018 -9.15679 332.963 12.3203H332.964C408.85 35.2922 482.913 95.9433 535.372 170.558C587.838 245.182 618.46 333.431 607.94 411.415C593.131 521.206 522.858 588.654 439.12 628.413C355.326 668.199 258.22 680.152 190.372 678.914H190.373C163.548 678.413 134.103 677.714 105.821 672.989C77.9844 668.338 51.4255 659.809 29.7109 643.852L28.6807 643.086C8.706 628.064 -2.21733 605.738 -11.0742 581.294C-19.8628 557.038 -26.6734 530.429 -38.4141 507.986C-45.4227 494.586 -53.1476 481.716 -60.6523 468.96C-68.1695 456.183 -75.4738 443.506 -81.7148 430.396C-94.1805 404.208 -102.37 376.357 -99.3838 342.854C-93.4806 276.705 -48.1979 222.689 -5.93066 175.67V175.669C42.6014 121.658 91.8719 70.0623 146.795 37.3379Z" stroke="#C69C6D" stroke-width="4"/>
<path d="M375.895 474.385C376.624 464.926 412.797 450.71 410.656 462.507C409.494 468.931 400.405 471.259 393.583 472.867C387.581 473.963 382.137 475.309 375.838 475.047M219.517 565.274C220.565 567.966 218.367 576.329 217.046 578.554C214.813 580.619 214.141 580.357 211.203 580.357L210.986 580.597C210.223 579.923 208.128 578.258 207.672 577.527L209.847 572.028C213.014 568.856 215.531 566.574 219.506 565.274L219.733 563.927M409.323 426.442C408.435 426.784 402.9 426.807 401.009 427.195C392.273 428.963 383.492 432.432 375.85 437.018C366.966 442.347 351.954 454.578 342.159 454.795M342.159 454.795C337.945 450.379 324.38 439.004 313.857 434.771C303.458 430.583 299.802 429.146 287.581 429.146C262.945 429.146 255.007 442.472 255.007 465.599C255.007 475.012 257.581 484.722 250.747 491.921C242.262 500.867 233.446 504.746 233.446 517.798C233.446 528.717 241.237 548.022 233.002 557.173C231.021 559.375 222.41 563.859 219.745 563.927C217.968 558.451 218.868 556.271 215.542 550.201C213.196 545.923 211.203 541.724 211.203 536.476C211.203 523.674 223.56 518.563 229.175 509.024C231.943 502.27 230.166 501.083 235.451 493.496C238.173 489.594 244.449 482.6 244.449 477.967C243.72 470.471 231.169 479.268 228.72 481.265C223.458 485.555 223.526 489.16 220.405 493.941C218.446 495.903 218.321 495.515 215.69 495.515C210.371 492.321 212.797 485.327 212.774 479.987C212.763 477.032 212.911 466.512 213.378 464.014C214.38 458.594 214.984 436.117 212.558 432.067C211.26 429.945 210.212 429.785 208.287 430.264C202.923 432.124 202.535 444.492 202.444 450.06C202.33 457.236 201.237 464.504 199.973 471.213C197.558 474.191 196.897 472.879 195.929 470.083C195.929 460.408 197.239 433.367 193.014 426.887C191.408 425.278 191.077 424.856 189.198 425.985C185.85 429.614 183.982 458.115 185.599 463.112L184.927 472.343C180.542 474.385 180.246 456.244 179.608 452.764C178.39 446.055 177.934 436.756 174.585 431.165C172.524 428.29 169.984 428.187 167.809 432.124C162.615 441.571 170.941 469.239 170.759 477.522C166.442 481.413 163.367 465.599 162.877 463.124C161.784 457.647 161.601 450.345 158.629 445.792C156.784 444.583 156.396 444.127 154.358 445.347C147.957 453.471 158.105 490.837 160.052 500.695C161.647 508.785 164.323 521.735 168.503 528.375C171.51 533.133 177.011 537.058 178.253 542.329C179.061 545.74 179.232 553.271 177.49 556.283M342.159 454.795C342.763 458.012 354.722 469.684 357.877 471.681C363.036 474.933 369.346 475.047 375.85 475.047C374.517 478.903 371.328 483.204 369.494 487.426C367.456 492.115 367.103 495.39 364.016 500.022C358.378 508.488 348.446 516.406 340.576 522.955C329.813 531.935 303.276 556.945 290.713 556.945L290.44 557.207C289.961 556.716 287.649 554.697 287.752 554.126L289.847 549.437C296.374 543.173 311.749 534.148 314.961 526.116C314.961 524.37 315.018 523.686 312.934 523.64C301.647 527.554 277.672 557.196 265.986 549.289L264.631 545.763L266.579 542.272C272.399 536.567 277.103 532.722 283.503 528.215C288.743 524.53 296.317 520.023 300.804 515.539C301.784 514.033 302.353 513.6 301.032 512.162C296.431 513.029 282.239 521.506 277 524.153C269.346 528.01 261.966 532.642 252.74 532.642L250.941 529.721C255.018 519.533 282.444 508.614 292.273 502.715C294.164 500.821 294.301 501.437 294.301 498.893C288.572 494.683 259.733 513.919 248.708 513.063L245.542 509.195L246.408 505.624C251.727 499.132 268.412 493.005 276.112 489.16C282.205 486.125 302.399 477.271 306.214 473.461C308.526 471.019 309.95 469.285 307.866 466.695C307.011 465.839 305.349 465.428 303.241 465.463C293.002 465.463 278.355 465.155 273.834 454.726C273.686 454.384 271.157 448.953 277.011 449.17C288.287 449.17 297.011 452.809 308.014 450.448C316.681 448.588 315.018 448.884 323.515 451.178C326.112 451.874 339.608 455.958 341.715 455.137M167.41 338.919C167.41 332.724 161.761 322.432 158.424 317.321C153.378 312.266 151.385 310.794 144.278 310.794C136.658 313.43 133.048 318.233 133.048 326.54L134.927 330.887C139.255 335.017 145.394 336.808 151.248 336.888C156.738 336.968 162.774 338.816 167.421 338.919L168.549 340.048M177.513 558.074C175.121 562.741 179.779 572.222 183.8 570.225C185.667 569.073 184.927 567.806 184.927 565.947C183.162 563.003 181.032 559.295 177.513 558.074ZM177.513 558.074V556.271C172.854 556.169 154.005 540.241 149.893 535.574C143.321 528.113 137.82 517.068 135.941 507.678C132.125 488.67 131.328 470.163 137.752 451.874C142.034 439.666 145.827 434.292 154.585 423.977C162.718 414.405 168.458 407.924 171.465 396.081C173.071 389.76 174.198 375.007 172.934 368.184C172.102 363.689 171.989 358.84 171.134 354.231C170.474 350.648 168.515 343.197 168.515 340.06C182.262 340.06 185.257 369.485 188.276 378.989C191.317 388.551 195.884 385.208 201.977 400.371C204.096 405.642 207.763 418.01 211.408 421.752C213.276 423.555 217.273 425.392 219.494 418.832C221.385 414.199 221.248 406.384 220.314 401.284C218.651 392.122 214.995 390.661 212.524 383.508C210.964 377.974 211.966 376.707 216.897 376.799C229.608 376.981 272.342 420.863 287.763 420.863C291.499 419.562 292.251 417.428 292.251 413.663C290.349 408.164 260.303 386.166 253.39 379.24C252.683 377.575 251.419 376.605 252.49 374.745C257.467 371.756 268.982 383.713 273.834 385.767C278.925 390.753 301.704 405.437 308.868 402.641C320.61 395.442 264.608 365.64 262.376 360.335C262.797 354.79 285.405 368.219 288.207 369.622C292.467 371.756 297.057 373.924 301.465 375.692C306.681 377.78 310.155 378.134 314.939 379.685L318.333 379.115C328.23 369.074 304.426 359.627 298.549 356.672C289.426 352.086 276.339 347.875 268.23 342.559C266.875 341.178 266.567 340.836 267.33 339.181C271.248 336.089 284.574 341.6 288.446 343.289C295.838 346.518 301.693 349.792 309.79 351.333C315.793 350.192 315.952 346.723 311.875 342.741C301.715 332.838 283.606 326.311 271.601 321.325C257 315.255 243.868 307.93 228.025 304.724C213.082 301.701 198.002 303.971 184.449 298.369C167.478 291.352 155.872 273.417 142.9 260.421M410.223 426.898C412.137 432.432 414.267 439.974 419.062 443.796C427.74 450.721 431.92 443.522 424.733 433.915C421.522 429.625 417.034 426.898 410.223 426.898ZM410.223 426.898L409.323 426.453C409.221 421.741 404.882 413.732 401.932 410.023C396.112 402.733 392.319 403.703 385.508 400.291C372.934 393.993 364.267 381.294 355.394 370.649C344.05 357.049 312.285 320.333 312.285 304.496C312.683 298.814 318.025 300.412 320.599 303.15C328.105 310.669 340.907 332.472 349.802 335.553C352.866 335.553 352.718 334.926 352.718 332.176C347.125 322.809 338.697 312.209 332.068 303.15C327.137 296.407 315.952 282.133 322.615 273.896C327.194 271.888 327.649 272.31 331.829 275.972C343.401 286.127 355.03 311.604 364.836 319.568C366.442 320.356 367.923 319.545 367.08 317.092C360.554 300.788 343.492 275.904 343.492 258.584C346.112 255.389 346.886 254.739 350.964 257.774C356.487 264.026 358.948 268.122 363.093 275.459C368.663 285.317 374.255 300.366 379.882 308.98C382.683 312.038 385.907 310.806 385.246 307.018C383.56 302.363 383.39 299.065 381.169 294.136C379.255 289.892 377.752 285.351 375.895 281.084C373.207 274.9 367.524 261.653 367.524 254.979L370.064 251.042L374.437 250.05L378.128 251.955C386.1 257.854 407.854 319.249 414.916 326.311C417.74 328.502 421.009 328.148 423.23 325.866C425.929 321.873 424.221 311.844 425.941 305.386C427.273 300.412 430.998 292.858 435.793 288.762C439.301 285.762 444.46 285.431 445.303 290.828C446.544 298.78 442.205 315.826 442.33 322.934C442.444 330.042 446.134 332.507 444.21 340.71C442.809 346.712 440.451 352.451 438.936 358.486C435.804 371.003 436.59 382.834 442.159 394.039C450.656 411.142 465.724 421.273 470.622 429.591" stroke="white" stroke-width="1.75" stroke-miterlimit="10" stroke-linecap="square"/>
<path d="M514.554 361.261C514.107 363.79 513.442 366.845 512.467 369.907C511.287 373.611 509.635 377.394 507.323 380.271C505.524 382.508 503.287 384.237 500.543 384.906C500.754 385.082 500.98 385.272 501.217 385.478C502.789 386.842 504.883 388.862 506.977 391.49C509.955 395.226 512.952 400.217 514.435 406.319C516.061 400.194 519.353 395.191 522.613 391.455C524.906 388.828 527.197 386.81 528.916 385.448C529.177 385.242 529.425 385.051 529.658 384.874C526.946 384.186 524.672 382.485 522.795 380.295C520.338 377.429 518.487 373.654 517.111 369.952C515.966 366.872 515.136 363.799 514.554 361.261Z" stroke="white" stroke-width="2"/>
<path d="M484.5 284.892C484.172 286.553 483.728 288.427 483.129 290.306C482.236 293.108 480.979 295.992 479.211 298.192C477.933 299.783 476.353 301.053 474.432 301.644C474.482 301.687 474.533 301.73 474.585 301.775C475.778 302.812 477.368 304.345 478.957 306.34C481.072 308.994 483.203 312.49 484.393 316.735C485.696 312.469 488.038 308.961 490.353 306.306C492.09 304.312 493.827 302.781 495.13 301.747C495.189 301.7 495.249 301.655 495.307 301.609C493.414 301.007 491.816 299.765 490.49 298.217C488.614 296.026 487.208 293.152 486.167 290.351C485.462 288.455 484.917 286.564 484.5 284.892Z" stroke="white" stroke-width="2"/>
<path d="M81.5536 361.261C81.1067 363.79 80.4418 366.845 79.4667 369.907C78.2875 373.611 76.6355 377.394 74.3232 380.271C72.5242 382.508 70.2872 384.237 67.5429 384.906C67.7544 385.082 67.9801 385.272 68.2167 385.478C69.7892 386.842 71.8829 388.862 73.9775 391.49C76.9547 395.226 79.9522 400.217 81.4355 406.319C83.0615 400.194 86.353 395.191 89.6132 391.455C91.9058 388.828 94.197 386.81 95.916 385.448C96.1768 385.242 96.4253 385.051 96.6581 384.874C93.9456 384.186 91.6722 382.485 89.7949 380.295C87.3378 377.429 85.4875 373.654 84.1113 369.952C82.9662 366.872 82.1359 363.799 81.5536 361.261Z" stroke="white" stroke-width="2"/>
<path d="M51.5001 284.892C51.1722 286.553 50.7279 288.427 50.129 290.306C49.2356 293.108 47.9796 295.992 46.211 298.192C44.9326 299.783 43.3529 301.053 41.4317 301.644C41.482 301.687 41.5332 301.73 41.585 301.775C42.7785 302.812 44.3677 304.345 45.9571 306.34C48.0717 308.994 50.2034 312.49 51.3926 316.735C52.6961 312.469 55.0379 308.961 57.3526 306.306C59.0905 304.312 60.8269 302.781 62.1299 301.747C62.1894 301.7 62.249 301.655 62.3067 301.609C60.4137 301.007 58.8163 299.765 57.4903 298.217C55.6139 296.026 54.2082 293.152 53.1671 290.351C52.4626 288.455 51.9171 286.564 51.5001 284.892Z" stroke="white" stroke-width="2"/>
</svg>
