<svg width="648" height="830" viewBox="0 0 648 830" fill="none" xmlns="http://www.w3.org/2000/svg">
<path fill-rule="evenodd" clip-rule="evenodd" d="M133.369 109.426C246.571 1.21956 444.656 17.1427 510.101 52.5668C617.22 110.554 638.301 194.553 686.616 302.953C711.473 358.749 753.111 407.324 772.758 465.601C805.691 563.235 746.014 688.364 666.409 753.732C636.518 778.294 601.732 797.247 566.737 810.398C538.909 820.874 510.066 826.676 481.399 829.061C328.063 841.761 281.811 723.111 199.059 625.026C165.498 585.25 114.665 565.491 85.2286 521.461C2.79221 398.137 30.7255 207.511 133.369 109.426Z" fill="#D0DBCC"/>
<path d="M328.363 3.0918C406.098 -1.83467 477.171 10.551 512.24 27.4434C627.656 83.0443 650.221 163.299 702.762 268.203C716.317 295.281 734.448 320.607 751.728 346.026C769.049 371.507 785.544 397.118 796.106 425V425.001C813.718 471.465 806.622 524.644 784.253 574.195C761.889 623.734 724.347 669.429 681.454 700.773V700.774C649.229 724.339 611.693 742.545 573.899 755.185H573.898C544.837 764.92 514.729 770.455 484.733 772.875L481.831 773.1C399.269 779.185 345.667 753.837 301.479 715.221C279.333 695.866 259.536 673.165 239.621 649.315C219.733 625.499 199.709 600.515 177.215 576.788C158.822 557.39 135.707 542.884 113.467 528.061C91.1367 513.178 69.6413 497.95 53.9062 477.005C-34.4546 359.369 -5.02141 177.528 104.521 83.1504L105.814 82.0439C166.747 30.2117 250.665 8.01604 328.363 3.0918Z" stroke="#C69C6D" stroke-width="4"/>
<path d="M186.079 560.584C185.989 560.584 185.91 560.584 185.831 560.562C185.719 560.539 185.606 560.494 185.505 560.426C184.729 559.942 184.212 559.154 183.987 558.083C182.525 551.257 193.367 532.917 195.065 530.393C201.251 521.111 209.81 512.504 218.864 503.402C228.143 494.074 237.737 484.431 245.498 473.301C254.394 460.549 259.073 456.2 271.839 448.822C271.861 448.81 271.884 448.799 271.906 448.788L272.345 448.574C272.345 448.574 272.424 448.54 272.469 448.517C272.502 448.506 272.547 448.495 272.581 448.484L274.133 448.044L274.819 447.819C274.819 447.819 274.864 447.808 274.887 447.796H274.909L275.831 447.56C275.831 447.56 275.843 447.56 275.854 447.56C275.865 447.56 275.876 447.56 275.888 447.56L277.046 447.323C277.046 447.323 277.069 447.323 277.091 447.323L278.486 447.087C278.486 447.087 278.542 447.087 278.576 447.075C278.621 447.075 278.655 447.075 278.688 447.075C291.026 447.075 298.495 450.354 307.942 454.488C309.854 455.333 311.856 456.2 313.993 457.09C317.536 458.566 321.023 459.794 324.397 460.988C326.646 461.788 328.975 462.599 331.325 463.5C332.079 463.782 334.16 464.3 336.364 464.829C344.17 466.733 347.251 467.68 348.331 468.682H348.556C351.334 468.648 353.921 468.705 355.214 469.595L360.118 469.189C363.065 466.868 371.995 466.711 386.099 466.756C395.637 466.79 408.189 466.823 412.238 464.931H412.103C409.46 464.852 406.175 464.762 404.297 464.109C400.541 462.802 397.83 457.507 398.955 453.744C399.225 450.872 401.317 448.81 404.871 447.943C409.178 446.884 415.319 447.718 419.346 449.509C414.881 446.918 406.749 444.597 391.959 444.597C388.506 444.597 385.301 444.969 382.208 445.341C379.441 445.667 376.831 445.971 374.155 446.017C366.709 446.118 363.402 445.825 355.979 445.07C350.558 444.518 344.271 442.851 337.612 441.071C331.809 439.528 325.803 437.928 320.28 437.094C310.124 435.551 294.828 438.142 284.807 440.835C272.896 444.034 258.398 452.415 244.373 460.526C233.868 466.598 223.015 472.873 213.41 476.861C201.364 481.851 190.96 486.166 177.43 490.21C177.16 490.289 149.874 497.341 142.777 492.565C141.72 491.855 141.112 490.886 141 489.748C141 489.703 141 489.669 141 489.624C141.056 487.27 143.722 483.665 166.239 479.519L166.666 479.441C190.027 475.115 199.755 467.961 217.818 453.497C219.584 452.077 221.316 450.613 223.003 449.205C225.489 447.109 228.053 444.935 230.741 442.919C232.777 441.387 235.117 439.945 237.377 438.548C239.705 437.106 241.91 435.743 243.608 434.402C243.631 434.38 243.664 434.357 243.698 434.334C243.732 434.312 243.777 434.289 243.811 434.267L244.249 434.042L245.183 433.568L245.644 433.332L246.094 433.107L246.566 432.87L247.027 432.633L247.489 432.397L247.938 432.172C247.938 432.172 247.983 432.149 248.006 432.138C248.04 432.126 248.062 432.115 248.096 432.104L248.714 431.901L249.119 431.698L249.581 431.473L250.03 431.248C250.03 431.248 250.075 431.225 250.098 431.214C250.132 431.203 250.165 431.191 250.199 431.18L250.818 430.977L251.211 430.786C251.211 430.786 251.268 430.752 251.301 430.741C251.324 430.741 251.346 430.73 251.369 430.718L251.987 430.504L252.392 430.301L252.842 430.076C252.842 430.076 252.887 430.054 252.91 430.042C252.943 430.031 252.977 430.02 253.011 430.009L253.686 429.783L254.383 429.547L255.069 429.321L255.766 429.085L256.453 428.848L257.15 428.612C257.15 428.612 257.184 428.6 257.206 428.6C257.206 428.6 257.229 428.6 257.24 428.6L258.792 428.161L259.489 427.925C259.489 427.925 259.501 427.925 259.512 427.925C259.534 427.925 259.557 427.913 259.579 427.902L262.065 427.226L262.762 426.99C262.762 426.99 262.773 426.99 262.785 426.99C262.807 426.99 262.83 426.978 262.852 426.967L263.774 426.742C263.774 426.742 263.808 426.742 263.819 426.742L264.978 426.505L267.036 426.043L267.97 425.807C267.97 425.807 268.003 425.807 268.026 425.795C268.037 425.795 268.048 425.795 268.071 425.795L269.466 425.559L270.86 425.322C270.86 425.322 270.883 425.322 270.894 425.322L272.514 425.086L273.65 424.86C273.65 424.86 273.683 424.86 273.706 424.86C273.717 424.86 273.728 424.86 273.74 424.86L275.607 424.624C275.607 424.624 275.629 424.624 275.64 424.624L277.98 424.387C277.98 424.387 277.98 424.387 277.991 424.387L280.803 424.151L283.851 423.914C283.851 423.914 283.907 423.914 283.929 423.914H283.941C289.328 423.914 294.569 424.162 299.631 424.41C303.837 424.613 307.819 424.804 311.845 424.86C316.963 424.928 322.879 426.021 328.603 427.068C332.607 427.812 336.398 428.499 339.839 428.86C341.808 429.062 345.339 429.659 349.827 430.414C363.042 432.645 386.898 436.678 393.725 433.805C390.069 431.755 378.878 426.302 374.278 424.061C372.591 423.238 371.32 422.619 370.735 422.326C362.604 418.259 354.877 413.392 345.767 407.32C333.98 399.468 313.363 382.92 307.684 360.31C305.243 350.577 306.896 341.069 312.464 332.823C317.48 325.388 325.387 319.485 334.733 316.218C346.835 311.971 359.646 313.177 372.782 319.789C374.649 320.724 377.18 322.617 379.621 324.442C381.454 325.805 383.344 327.213 384.491 327.855C385.222 326.841 385.942 325.411 386.751 323.789C388.135 321.029 389.698 317.897 392.038 315.463C395.862 311.509 397.909 310.056 400.507 308.22C401.71 307.364 403.071 306.406 404.781 305.054C404.826 305.021 404.871 304.987 404.927 304.953C404.983 304.919 405.051 304.897 405.118 304.874L405.737 304.671L406.142 304.469L406.614 304.232L407.536 303.77C407.536 303.77 407.57 303.759 407.581 303.748C407.615 303.736 407.649 303.714 407.694 303.703L408.312 303.5L408.706 303.308C408.706 303.308 408.762 303.286 408.785 303.274C408.785 303.274 408.83 303.252 408.863 303.252L409.55 303.027L410.247 302.79L410.933 302.553L411.642 302.317L412.328 302.08C412.328 302.08 412.339 302.08 412.35 302.08C412.373 302.08 412.395 302.069 412.418 302.058L413.34 301.833C413.34 301.833 413.351 301.833 413.362 301.833C413.374 301.833 413.385 301.833 413.396 301.833L416.377 301.145C416.377 301.145 416.41 301.145 416.433 301.134C416.455 301.134 416.478 301.134 416.5 301.123L418.131 300.886C418.131 300.886 418.154 300.886 418.165 300.886L420.268 300.65C420.268 300.65 420.291 300.65 420.302 300.65L423.102 300.413C423.102 300.413 423.17 300.413 423.192 300.413H423.204C445.282 300.413 461.444 312.377 466.427 332.395C468.642 341.283 468.744 350.228 466.742 358.238C466.055 360.975 462.839 369.852 460.488 376.33C459.757 378.357 459.037 380.318 458.554 381.692C460.994 380.554 465.234 378.245 469.103 376.138C473.985 373.48 479.035 370.742 481.453 369.762C489.528 366.506 498.29 362.44 506.028 358.846C519.401 352.639 544.055 341.193 546.383 323.574C544.516 323.721 542.503 324.126 540.4 324.543C537.273 325.163 533.73 325.861 529.985 325.861H529.895C523.585 325.839 518.602 325.828 512.113 324.509C497.514 321.558 487.155 316.117 477.145 310.856C465.617 304.795 455.663 299.568 441.469 299.32C435.913 299.219 406.963 292.088 406.738 283.177L406.614 282.558C405.422 281.837 404.837 280.541 405.073 279.077C405.332 277.488 406.479 276.182 407.851 275.832C409.122 274.188 411.81 272.982 413.891 272.734C415.072 270.763 417.985 269.569 422.563 269.175C436.914 267.969 465.099 274.751 469.407 279.291L473.321 279.482C475.818 277.939 482.938 277.229 494.488 277.387C500.787 277.477 511.078 280.879 516.083 283.864C523.911 288.54 530.412 293.586 537.138 300.21C547.339 310.259 547.643 314.303 547.901 317.886C547.98 318.922 548.048 319.925 548.385 321.029C554.222 320.454 567.809 313.154 572.499 310.169C582.689 303.691 588.481 298.138 595.455 288.134C601.168 279.933 606.454 268.825 609.097 262.922C609.581 261.83 611.021 259.261 612.832 256.005C615.61 251.015 620.491 242.262 621.604 239.04L621.548 239.074L621.087 239.31L620.153 239.772L619.771 239.964C608.872 248.514 568.068 266.538 553.221 268.285C531.379 270.864 496.907 258.349 486.852 254.451L486.031 254.135C478.754 251.308 461.68 244.684 454.325 246.047C451.513 246.565 448.724 247.275 446.035 247.951C443.325 248.638 440.536 249.348 437.679 249.877C434.856 250.407 431.976 250.733 429.198 251.06C426.578 251.364 423.856 251.68 421.258 252.153C417.31 252.874 413.958 253.291 411 253.674C403.33 254.654 397.796 255.352 388.45 260.038C386.864 260.827 382.444 262.72 377.326 264.905C369.644 268.183 358.206 273.072 356.339 274.379C356.024 276.384 354.528 278.277 352.009 279.877C348.061 282.366 342.404 283.605 339.311 282.704C339.165 282.828 339.187 283.008 339.221 283.594C339.221 283.695 339.232 283.797 339.243 283.909C339.873 284.135 340.537 284.529 341.313 284.991C343.742 286.433 347.409 288.618 354.708 288.63H354.731C361.142 288.63 377.113 282.952 388.776 278.818C402.869 273.816 404.05 273.523 404.623 274.92C404.668 275.021 404.691 275.123 404.691 275.224C405.073 281.296 392.454 284.98 380.599 287.965C379.407 288.269 378.417 288.517 377.709 288.708C375.111 289.441 372.051 290.86 369.105 292.235C367.294 293.079 365.584 293.879 363.976 294.521C363.099 294.871 359.061 296.222 355.495 297.405C353.932 297.923 352.346 298.453 351.312 298.802C353.044 300.413 358.251 301.281 373.39 295.659L373.817 295.501C376.168 294.634 378.372 293.755 380.498 292.899C386.358 290.556 391.891 288.348 399.056 286.996C399.585 286.895 400.102 287.244 400.203 287.785C400.304 288.325 399.956 288.832 399.416 288.934C392.431 290.252 386.988 292.437 381.218 294.735C379.07 295.592 376.854 296.482 374.481 297.349L374.053 297.507C368.688 299.501 352.627 305.449 349.085 299.163C348.354 299.073 346.948 299.073 345.575 299.084C339.187 299.095 328.525 299.163 328.367 291.739C328.615 288.449 334.452 285.036 337.253 283.966C337.253 283.876 337.241 283.797 337.23 283.718C337.163 282.727 337.073 281.611 338.49 280.857C340.413 277.973 351.66 273.275 355.001 272.892C356.733 271.608 363.2 268.758 376.528 263.058C381.611 260.883 386.009 259.002 387.539 258.236C397.178 253.403 403.15 252.648 410.719 251.68C413.655 251.308 416.973 250.88 420.864 250.17C423.519 249.686 426.274 249.37 428.928 249.055C431.684 248.739 434.518 248.401 437.274 247.894C440.074 247.376 442.841 246.678 445.507 245.991C448.229 245.303 451.04 244.594 453.92 244.053C461.827 242.589 478.63 249.111 486.694 252.243L487.515 252.558C497.458 256.411 531.57 268.803 552.94 266.268C567.584 264.545 607.917 246.712 618.556 238.308C618.59 238.285 618.624 238.263 618.658 238.24C618.691 238.218 618.725 238.195 618.759 238.184L619.197 237.959L620.131 237.485L620.592 237.26L621.042 237.035C621.042 237.035 621.132 236.99 621.177 236.978C621.222 236.956 621.278 236.945 621.323 236.933L622.448 236.708C622.448 236.708 622.549 236.686 622.605 236.686C622.752 236.686 622.887 236.697 623.01 236.753C623.145 236.809 623.269 236.888 623.381 237.001C623.415 237.046 623.449 237.091 623.483 237.136C624.315 238.387 623.123 241.372 614.462 256.918C612.742 260.005 611.257 262.663 610.807 263.677C608.13 269.636 602.788 280.879 596.984 289.204C589.932 299.32 583.78 305.223 573.478 311.78C569.125 314.551 554.92 322.38 548.34 322.944C546.518 342.117 520.694 354.115 506.77 360.57C499.01 364.163 490.226 368.241 482.105 371.531C479.788 372.466 474.795 375.181 469.958 377.817C463.401 381.388 459.138 383.663 457.406 384.182L454.999 386.795C453.56 394.591 419.481 439.381 413.531 441.094C413.441 441.116 413.351 441.127 413.261 441.127C411.338 441.127 400.72 437.072 398.291 434.988L395.76 434.808C390.294 438.807 369.892 435.788 349.388 432.318C344.946 431.563 341.436 430.977 339.536 430.775C336.015 430.414 332.191 429.716 328.142 428.972C322.496 427.936 316.659 426.854 311.71 426.787C307.65 426.73 303.657 426.539 299.428 426.336C294.401 426.1 289.193 425.852 283.862 425.852L275.73 426.55L273.897 426.775L272.772 427.001C272.772 427.001 272.75 427.001 272.739 427.001C272.739 427.001 272.716 427.001 272.705 427.001L268.318 427.699L266.496 428.161C266.496 428.161 266.463 428.161 266.451 428.161L265.282 428.398L263.257 428.848L262.594 429.074L261.896 429.31C261.896 429.31 261.862 429.321 261.84 429.321C261.84 429.321 261.817 429.321 261.806 429.321L260.873 429.558L259.309 430.009L258.623 430.245C258.612 430.245 258.601 430.245 258.578 430.256C258.556 430.256 258.545 430.256 258.522 430.268L256.97 430.707L256.261 430.944L255.564 431.169L254.855 431.405L254.158 431.642L253.517 431.856L253.112 432.059L252.651 432.284C252.651 432.284 252.606 432.307 252.584 432.318C252.55 432.329 252.527 432.34 252.494 432.352L251.875 432.555L251.481 432.746C251.481 432.746 251.414 432.78 251.38 432.791C251.358 432.791 251.346 432.802 251.324 432.814L250.705 433.016L250.3 433.219L249.839 433.445L249.389 433.67C249.389 433.67 249.344 433.692 249.322 433.704C249.288 433.715 249.266 433.726 249.232 433.737L248.613 433.94L248.208 434.143L247.747 434.368L247.286 434.605L246.825 434.841L246.364 435.078L245.903 435.315L245.442 435.551L244.969 435.788L244.598 435.979C242.821 437.376 240.594 438.75 238.243 440.204C236.028 441.578 233.733 442.997 231.754 444.473C229.111 446.456 226.557 448.608 224.106 450.692C222.419 452.122 220.675 453.587 218.887 455.017C201.049 469.302 190.634 476.962 166.857 481.367L166.43 481.446C144.993 485.4 142.901 488.622 142.811 489.602C142.878 490.12 143.171 490.537 143.722 490.909C149.154 494.559 172.391 489.591 176.721 488.295C190.139 484.285 200.509 479.993 212.51 475.013C222.002 471.082 232.8 464.829 243.248 458.791C257.386 450.613 271.996 442.164 284.154 438.897C294.356 436.159 309.989 433.523 320.438 435.112C326.062 435.968 332.113 437.579 337.972 439.133C344.552 440.88 350.772 442.536 356.035 443.076C363.368 443.82 366.641 444.113 373.975 444.011C376.55 443.978 379.115 443.673 381.825 443.358C384.974 442.986 388.236 442.603 391.813 442.603C417.085 442.603 426.364 449.644 426.623 456.234C426.713 458.577 425.509 460.56 423.8 461.112C423.26 462.464 421.708 463.466 419.908 464.12C419.402 466.857 416.084 468.998 409.808 470.676C396.042 474.337 364.966 475.07 360.028 471.149L355.327 471.544C353.505 473.684 346.52 475.982 345.654 476.264C341.774 477.514 336.769 478.697 334.936 477.244C334.699 477.052 334.564 476.771 334.564 476.467C334.564 472.208 340.278 470.811 344.046 469.899C344.563 469.775 345.159 469.629 345.688 469.482C343.416 468.592 338.625 467.432 335.779 466.733C333.316 466.136 331.37 465.663 330.504 465.325C328.176 464.435 325.859 463.624 323.621 462.836C320.224 461.63 316.704 460.391 313.116 458.904C310.968 458.014 308.966 457.135 307.031 456.29C297.809 452.246 290.52 449.058 278.632 449.036L276.191 449.486L274.651 449.926L273.953 450.162C273.953 450.162 273.919 450.173 273.897 450.173C273.897 450.173 273.874 450.173 273.863 450.173L273.042 450.376L272.694 450.545C260.254 457.744 255.688 461.991 247.005 474.439C239.143 485.704 229.493 495.415 220.158 504.799C211.171 513.833 202.68 522.372 196.595 531.497C193.603 535.981 184.673 552.383 185.809 557.678C185.899 558.106 186.045 558.41 186.259 558.624C189.014 558.173 205.784 546.998 213.927 541.568C217.796 538.989 220.855 536.95 222.227 536.127C223.959 535.091 225.714 534.032 227.491 532.95C237.895 526.653 248.647 520.142 259.163 515.568C283.255 505.092 304.118 502.748 333.575 507.209C343.36 508.696 359.758 510.228 370.241 510.24H370.252C378.541 510.24 388.866 504.359 397.976 499.166C401.058 497.409 403.971 495.753 406.614 494.435C411.09 492.193 415.983 490.357 420.707 488.577C428.546 485.625 436.644 482.584 443.28 477.57C460.061 464.908 477.438 451.368 479.001 449.205C479.147 445.588 482.623 441.938 485.873 439.708C488.46 437.939 491.924 436.34 494.32 436.847C494.477 436.711 494.511 436.644 494.511 436.633C494.511 436.588 494.432 436.351 494.376 436.182C494.297 435.923 494.196 435.619 494.117 435.236C492.261 434.83 490.901 434.278 489.686 433.794C486.919 432.69 484.917 431.89 478.832 433.501C471.128 435.551 457.8 443.944 447.093 450.68C434.844 458.386 430.751 460.808 429.108 459.952C428.782 459.783 428.58 459.445 428.58 459.073C428.58 452.753 439.31 447.301 447.138 443.324C449.32 442.209 451.209 441.251 452.503 440.463C454.662 439.133 473.197 426.28 477.336 423.272C477.033 423.08 476.684 422.945 476.268 422.866C471.117 421.954 459.813 430.054 454.988 433.512C454.088 434.165 453.357 434.684 452.874 435.01L452.086 435.529C442.605 441.837 436.34 446.005 426.004 450.816C425.509 451.052 424.924 450.827 424.7 450.342C424.475 449.847 424.688 449.261 425.172 449.036C435.373 444.282 441.582 440.147 450.995 433.895L451.783 433.377C452.255 433.061 452.964 432.555 453.841 431.924C459.296 428.015 470.633 419.87 476.617 420.94C477.719 421.132 478.607 421.616 479.282 422.382C480.249 422.281 481.7 421.92 483.342 421.503C489.506 419.96 499.82 417.369 502.508 425.671C502.575 425.863 502.575 426.077 502.508 426.28C501.372 429.806 499.752 431.135 498.324 432.307C497.503 432.983 496.727 433.625 496.029 434.672C496.086 435.033 496.176 435.326 496.265 435.607C496.592 436.61 496.738 437.534 495.321 438.604C493.622 441.995 484.748 449.712 480.519 450.399C479.046 452.19 472.658 457.901 444.472 479.159C437.611 484.33 429.378 487.439 421.404 490.435C416.725 492.193 411.889 494.018 407.503 496.215C404.904 497.51 402.014 499.155 398.955 500.901C389.631 506.207 379.058 512.234 370.252 512.234H370.241C359.657 512.234 343.135 510.679 333.282 509.181C304.231 504.776 283.671 507.085 259.95 517.404C249.558 521.922 238.862 528.399 228.515 534.663C226.737 535.744 224.983 536.803 223.251 537.84C221.912 538.639 218.876 540.667 215.029 543.236C197.495 554.918 188.486 560.618 185.989 560.618L186.079 560.584ZM336.713 475.847C337.23 475.948 338.276 476.005 340.301 475.633C345.171 474.732 351.165 472.265 353.246 470.868C352.335 470.676 350.76 470.609 348.556 470.62H348.185C347.521 471.07 346.408 471.352 344.597 471.791C341.661 472.501 337.354 473.56 336.701 475.847H336.713ZM362.289 470.158C367.834 472.276 393.905 472.873 409.415 468.75C413.689 467.612 416.512 466.226 417.614 464.762C416.714 464.931 415.837 465.021 415.061 465.021C412.845 468.513 402.419 468.761 386.077 468.705C376.651 468.682 366.102 468.648 362.289 470.169V470.158ZM414.532 463.016C417.355 463.219 421.876 461.743 422.135 460.177C422.135 459.546 422.18 458.904 422.225 458.273C422.36 456.347 422.461 454.68 421.415 453.339C419.74 450.669 411.012 448.416 405.321 449.824C402.543 450.511 401.047 451.908 400.889 453.981C400.889 454.06 400.867 454.139 400.844 454.206C399.967 456.921 402.171 461.258 404.916 462.216C406.502 462.768 409.763 462.858 412.136 462.926C413.059 462.948 413.891 462.971 414.498 463.016C414.51 463.016 414.521 463.016 414.543 463.016H414.532ZM423.743 453.44C424.407 454.995 424.295 456.719 424.171 458.397C424.171 458.431 424.171 458.465 424.171 458.498C424.542 457.969 424.789 457.192 424.756 456.279C424.745 455.941 424.632 454.837 423.743 453.44ZM479.125 424.342C474.862 427.801 453.875 441.984 453.65 442.13C452.289 442.964 450.377 443.944 448.15 445.07C441.683 448.36 432.156 453.204 430.829 457.969C433.382 457.056 440.131 452.809 446.17 449.002C456.99 442.198 470.453 433.726 478.45 431.586C485.153 429.806 487.65 430.797 490.541 431.946C491.744 432.431 492.981 432.926 494.668 433.298C495.478 432.149 496.344 431.439 497.188 430.752C498.537 429.648 499.707 428.691 500.652 425.953C498.56 420.253 491.553 421.481 483.939 423.396C481.925 423.903 480.306 424.308 479.136 424.353L479.125 424.342ZM492.993 438.75C491.564 438.908 489.438 439.731 487.099 441.33C484.051 443.414 481.914 445.971 481.273 448.157C484.557 446.895 490.743 441.77 492.993 438.75ZM400.642 433.997C403.42 435.619 411.462 438.874 413.362 439.043C418.885 436.937 449.016 397.508 452.907 387.775C447.239 390.479 436.824 401.429 430.975 407.579C429.423 409.202 428.096 410.61 427.095 411.612C425.194 413.528 423.451 415.476 421.764 417.369C419.323 420.106 416.793 422.945 413.7 425.739C411.923 427.35 406.839 430.347 403.127 432.532C402.239 433.061 401.328 433.602 400.653 434.008L400.642 433.997ZM396.03 432.735L398.651 432.926C399.112 432.611 400.046 432.048 402.115 430.831C405.546 428.803 410.73 425.75 412.373 424.275C415.387 421.548 417.884 418.755 420.291 416.062C422 414.147 423.755 412.176 425.701 410.227C426.69 409.235 428.006 407.839 429.547 406.228C438.905 396.382 448.476 386.694 453.785 385.364L456.225 382.717C456.417 382.064 457.013 380.408 458.79 375.496C461.129 369.052 464.323 360.232 464.987 357.596C466.922 349.89 466.809 341.283 464.672 332.711C459.915 313.627 444.483 302.238 423.384 302.216L420.617 302.441L416.961 302.903L416.073 303.128L415.151 303.365H415.094L413.07 303.826L412.406 304.052L411.709 304.288L411 304.525L410.303 304.75L409.662 304.964L409.268 305.156C409.268 305.156 409.223 305.178 409.212 305.19C409.178 305.201 409.145 305.212 409.122 305.223L408.504 305.426L408.099 305.629L407.638 305.854L407.165 306.091L406.715 306.316C406.715 306.316 406.659 306.35 406.625 306.361C406.603 306.361 406.58 306.372 406.558 306.384L406.029 306.564C404.331 307.893 402.981 308.851 401.789 309.696C399.281 311.476 397.29 312.872 393.601 316.703C391.464 318.911 389.968 321.907 388.652 324.532C387.696 326.447 386.864 328.114 385.897 329.297V330.12C388.371 331.302 391.239 335.606 391.914 339.425C392.431 342.309 391.622 344.562 389.631 345.756C389.473 345.846 389.305 345.891 389.125 345.891C387.111 345.891 385.458 344.911 384.333 343.075C382.264 339.673 382.41 333.781 383.917 330.593V329.579C382.612 328.914 380.723 327.495 378.575 325.895C376.314 324.205 373.738 322.29 372.029 321.423C359.376 315.058 347.094 313.886 335.509 317.953C319.459 323.574 304.534 339.042 309.731 359.702C315.242 381.669 335.442 397.858 346.993 405.552C356.035 411.579 363.706 416.411 371.748 420.433C372.333 420.726 373.603 421.346 375.279 422.157C390.081 429.366 394.714 431.777 396.064 432.735H396.03ZM385.402 332.102C384.423 334.862 384.435 339.481 385.998 342.049C386.718 343.221 387.64 343.829 388.832 343.92C389.923 343.131 390.306 341.734 389.957 339.785C389.383 336.575 387.01 333.172 385.413 332.114L385.402 332.102ZM409.448 284.721C413.34 290.905 435.351 297.067 441.66 297.18C456.315 297.439 466.955 303.027 478.214 308.941C488.111 314.145 498.346 319.519 512.664 322.414C518.962 323.687 523.866 323.698 530.063 323.721C533.606 323.721 536.969 323.079 540.186 322.437C542.458 321.986 544.628 321.558 546.687 321.412C546.293 320.105 546.203 318.967 546.124 317.863C545.877 314.472 545.618 310.969 535.946 301.45C529.332 294.938 522.955 289.981 515.262 285.385C510.572 282.58 500.551 279.268 494.646 279.189C482.634 279.032 477.663 279.831 475.604 280.519C478.506 281.983 486.109 282.918 488.842 282.4C489.371 282.299 489.888 282.648 489.99 283.189C490.091 283.729 489.742 284.236 489.202 284.338C486.019 284.946 476.009 283.943 473.31 281.285L469.295 281.082C464.402 283.222 444.798 277.376 443.955 277.117C438.027 275.337 431.032 274.323 423.136 274.075C423.339 274.143 423.53 274.21 423.721 274.278L424.328 274.514C427.523 275.731 431.144 277.105 431.144 281.961C431.144 285.802 430.064 288.382 427.927 289.644C423.339 292.358 415.331 287.954 410.551 285.318C410.191 285.115 409.808 284.912 409.46 284.721H409.448ZM346.79 296.977C348.241 296.977 349.231 297 349.894 297.135C350.558 296.887 351.953 296.414 355.034 295.389C358.397 294.274 362.581 292.877 363.402 292.539C364.966 291.908 366.653 291.131 368.441 290.297C371.466 288.889 374.593 287.436 377.349 286.658C378.069 286.455 379.081 286.196 380.296 285.892C386.167 284.416 401.148 280.654 402.767 276.125C400.597 276.621 395.018 278.592 389.608 280.519C377.146 284.946 361.648 290.443 354.899 290.443H354.877C347.049 290.432 342.932 287.988 340.48 286.523C339.659 286.039 338.996 285.644 338.523 285.532C336.027 286.298 330.684 289.711 330.538 291.649C330.662 297.034 340.109 296.988 345.778 296.966C346.149 296.966 346.486 296.966 346.813 296.966L346.79 296.977ZM408.728 282.152C409.336 282.411 410.179 282.873 411.495 283.594C415.612 285.87 423.294 290.094 426.915 287.942C428.411 287.064 429.165 285.047 429.165 281.949C429.165 278.626 427.05 277.657 423.62 276.351L423.001 276.114C421.382 275.483 419.031 275.179 417.153 274.931C415.882 274.762 415.061 274.649 414.532 274.492C412.89 274.593 410.416 275.652 409.505 276.925L408.639 281.713L408.728 282.152ZM341.268 280.868C343.855 281.026 347.96 280.057 351.132 278.063C352.661 277.094 353.73 276.024 354.247 274.931C350.794 275.765 343.821 278.964 341.268 280.868ZM419.357 272.047C428.996 272.047 437.454 273.117 444.495 275.224C451.839 277.432 462.636 279.91 467.045 279.584C461.174 276.001 436.846 269.783 422.877 270.966C419.785 271.225 417.546 271.878 416.377 272.836C416.703 272.881 417.051 272.926 417.4 272.971C417.648 273.005 417.895 273.039 418.154 273.072C418.187 272.881 418.277 272.712 418.424 272.565L418.66 272.329C418.66 272.329 418.682 272.306 418.694 272.295C418.772 272.227 418.862 272.16 418.952 272.126C419.076 272.07 419.211 272.036 419.357 272.036V272.047Z" fill="white"/>
<path d="M228.455 318.476C228.127 320.137 227.683 322.011 227.084 323.89C226.19 326.693 224.934 329.576 223.166 331.776C221.888 333.367 220.308 334.637 218.387 335.228C218.437 335.271 218.488 335.315 218.54 335.359C219.733 336.396 221.323 337.929 222.912 339.924C225.027 342.578 227.158 346.074 228.348 350.319C229.651 346.053 231.993 342.545 234.307 339.89C236.045 337.896 237.782 336.365 239.085 335.331C239.144 335.284 239.204 335.239 239.262 335.193C237.369 334.591 235.771 333.349 234.445 331.801C232.569 329.61 231.163 326.736 230.122 323.935C229.417 322.039 228.872 320.148 228.455 318.476Z" stroke="white" stroke-width="2"/>
<path d="M589.509 360.845C589.062 363.374 588.397 366.429 587.422 369.491C586.243 373.195 584.591 376.978 582.278 379.855C580.479 382.092 578.242 383.821 575.498 384.49C575.71 384.666 575.935 384.856 576.172 385.062C577.744 386.426 579.838 388.446 581.933 391.074C584.91 394.81 587.907 399.801 589.391 405.903C591.017 399.779 594.308 394.775 597.568 391.039C599.861 388.412 602.152 386.395 603.871 385.032C604.132 384.826 604.38 384.635 604.613 384.458C601.901 383.77 599.627 382.069 597.75 379.879C595.293 377.013 593.443 373.238 592.066 369.536C590.921 366.456 590.091 363.383 589.509 360.845Z" stroke="white" stroke-width="2"/>
<path d="M282.436 221.261C281.989 223.79 281.324 226.845 280.349 229.907C279.17 233.611 277.518 237.394 275.206 240.271C273.407 242.508 271.17 244.237 268.425 244.906C268.637 245.082 268.863 245.272 269.099 245.478C270.672 246.842 272.765 248.862 274.86 251.49C277.837 255.226 280.835 260.217 282.318 266.319C283.944 260.194 287.235 255.191 290.496 251.455C292.788 248.828 295.079 246.81 296.798 245.448C297.059 245.242 297.308 245.051 297.541 244.874C294.828 244.186 292.555 242.485 290.677 240.295C288.22 237.429 286.37 233.654 284.994 229.952C283.849 226.872 283.018 223.799 282.436 221.261Z" stroke="white" stroke-width="2"/>
<path d="M533.08 447.369C532.8 448.733 532.434 450.234 531.959 451.738C531.164 454.253 530.043 456.849 528.459 458.834C527.352 460.221 525.987 461.345 524.331 461.904C525.396 462.835 526.812 464.212 528.228 466.003C530.056 468.313 531.899 471.333 532.977 474.988C534.161 471.314 536.187 468.283 538.188 465.973C539.74 464.182 541.289 462.806 542.452 461.876C542.455 461.874 542.459 461.871 542.462 461.868C540.832 461.301 539.453 460.205 538.307 458.859C536.627 456.883 535.372 454.297 534.444 451.783C533.883 450.263 533.434 448.745 533.08 447.369Z" stroke="white" stroke-width="2"/>
</svg>
