<?xml version="1.0" encoding="UTF-8"?>
<svg id="Camada_2" data-name="Camada 2" xmlns="http://www.w3.org/2000/svg" viewBox="0 0 670.4 559.32">
  <defs>
    <style>
      .cls-1 {
        fill: none;
        fill-rule: evenodd;
        stroke: #e6efe6;
        stroke-miterlimit: 10;
        stroke-width: 1.5px;
      }
    </style>
  </defs>
  <g id="Camada_1-2" data-name="Camada 1">
    <g>
      <path class="cls-1" d="M662.45,299.17c-27.9,90.84-139.52,151.18-185.63,156.62-75.47,8.9-112.54-24.22-171.74-59.73-30.47-18.28-67.77-27.33-96.19-48.59-47.62-35.61-53.75-116.21-30.85-174.94,8.59-22.06,21.54-43.11,36.38-61.44,11.79-14.58,25.56-27.27,40.28-38.26,78.75-58.73,139.98-17.59,214.59,1.13,30.26,7.59,63.7-.36,93.04,10.69,82.16,30.96,125.44,132.14,100.14,214.5Z"/>
      <path class="cls-1" d="M552.52,423.57c-75.97,57.09-201.74,40.28-242.24,17.57-66.29-37.17-76.8-85.75-103.82-149.28-13.9-32.7-38.76-61.95-49.25-95.85-17.59-56.8,24.84-125.61,77.89-159.66,19.92-12.79,42.77-22.21,65.54-28.31,18.11-4.87,36.71-7.04,55.07-7.27,98.23-1.21,123.58,68.06,172.93,127.07,20.01,23.93,51.74,37.16,68.98,63.34,48.26,73.35,23.79,180.64-45.09,232.39Z"/>
      <path class="cls-1" d="M206.62,174.64c64.47-69.82,191.21-75.89,235.13-60.83,71.89,24.65,90.96,70.55,128.97,128.18,19.55,29.67,49.26,53.97,65.68,85.44,27.52,52.71-1.85,128.03-47.91,171.06-17.3,16.17-38.08,29.53-59.38,39.64-16.94,8.04-34.85,13.52-52.87,17.05-96.41,18.85-133.8-44.74-192.95-93.91-23.99-19.94-57.58-27.25-79.24-49.91-60.66-63.48-55.88-173.42,2.58-236.71Z"/>
      <path class="cls-1" d="M46.75,102.43C111.22,32.61,237.97,26.54,281.89,41.6c71.89,24.65,90.96,70.55,128.97,128.18,19.55,29.67,49.26,53.97,65.68,85.44,27.52,52.72-1.85,128.03-47.91,171.06-17.3,16.17-38.08,29.53-59.38,39.64-16.94,8.04-34.85,13.52-52.87,17.05-96.41,18.85-133.8-44.74-192.95-93.91-23.99-19.94-57.58-27.25-79.24-49.91-60.66-63.48-55.88-173.42,2.58-236.71Z"/>
    </g>
  </g>
</svg>