<?xml version="1.0" encoding="UTF-8"?>
<svg id="Camada_2" data-name="Camada 2" xmlns="http://www.w3.org/2000/svg" viewBox="0 0 598.11 647.22">
  <defs>
    <style>
      .cls-1 {
        fill: none;
        fill-rule: evenodd;
        stroke: #e6efe6;
        stroke-miterlimit: 10;
        stroke-width: 1.5px;
      }
    </style>
  </defs>
  <g id="Camada_1-2" data-name="Camada 1">
    <g>
      <path class="cls-1" d="M69.15,122.66c75.23-58.07,201.2-42.88,241.99-20.7,66.76,36.31,77.9,84.75,105.74,147.93,14.32,32.52,39.56,61.44,50.49,95.21,18.32,56.57-23.21,125.92-75.82,160.65-19.75,13.05-42.48,22.76-65.17,29.16-18.05,5.1-36.61,7.51-54.98,7.98-98.21,2.48-124.45-66.46-174.55-124.83-20.32-23.67-52.22-36.48-69.79-62.45C-22.15,282.9.94,175.3,69.15,122.66Z"/>
      <path class="cls-1" d="M230.73,84.56c94.99-2.75,187.97,83.59,207.93,125.52,32.66,68.62,13.19,114.36-1.42,181.83-7.53,34.72-4.12,72.96-15.13,106.7-18.43,56.54-92.8,88.22-155.78,85.39-23.65-1.06-47.74-6.56-69.86-14.72-17.6-6.48-34.03-15.45-49.16-25.86-80.9-55.72-61.61-126.92-67.82-203.6-2.52-31.09-20.79-60.21-19.74-91.54,2.94-87.75,84.87-161.23,170.99-163.71Z"/>
      <path class="cls-1" d="M369.42,487.53c-92.95,19.78-199.93-48.44-227.1-86.09-44.47-61.63-33.53-110.12-31.29-179.12,1.16-35.51-9.06-72.51-4.3-107.68C114.7,55.7,182.16,11.17,244.62,2.63c23.46-3.21,48.14-2.13,71.37,1.93,18.48,3.22,36.26,9.08,53.01,16.6,89.6,40.27,83.42,113.78,103.32,188.09,8.07,30.13,31.28,55.49,35.88,86.5,12.88,86.85-54.51,173.86-138.78,191.78Z"/>
      <path class="cls-1" d="M457,642.95c-92.95,19.78-199.93-48.44-227.1-86.09-44.47-61.63-33.53-110.12-31.29-179.12,1.16-35.51-9.06-72.51-4.3-107.68,7.97-58.93,75.43-103.46,137.89-112,23.46-3.21,48.14-2.13,71.37,1.93,18.48,3.22,36.26,9.08,53.01,16.6,89.6,40.27,83.42,113.78,103.32,188.09,8.07,30.13,31.28,55.49,35.88,86.5,12.88,86.85-54.51,173.86-138.78,191.78Z"/>
    </g>
  </g>
</svg>