<?xml version="1.0" encoding="UTF-8"?>
<svg id="Camada_2" data-name="Camada 2" xmlns="http://www.w3.org/2000/svg" viewBox="0 0 670.86 559.79">
  <defs>
    <style>
      .cls-1 {
        fill: #e6efe6;
      }
    </style>
  </defs>
  <g id="Camada_1-2" data-name="Camada 1">
    <g>
      <path class="cls-1" d="M453.05,458.51c-50.24,0-83.03-20.61-123.14-45.82-8.02-5.04-16.31-10.25-25.1-15.52-13.09-7.85-27.73-14.11-41.88-20.17-18.75-8.02-38.15-16.32-54.4-28.47-48.39-36.18-53.86-117.96-31.19-176.11,8.14-20.9,20.77-42.23,36.53-61.7,11.14-13.78,24.75-26.71,40.46-38.43,63.25-47.17,115.9-30.14,171.64-12.11,14.13,4.57,28.75,9.3,43.79,13.07,13.5,3.39,27.93,3.66,41.88,3.92,17.19.33,34.96.66,51.26,6.8,39.46,14.87,71.76,46.3,90.93,88.5,18.54,40.81,22.12,87.19,9.81,127.23h0c-15.64,50.95-55.59,88.4-86.35,110.85-39.13,28.56-78.48,43.92-100.12,46.47-8.51,1-16.53,1.48-24.14,1.48ZM339.77,43.69c-29.82,0-56.66,9.64-84.23,30.2-15.57,11.62-29.07,24.44-40.1,38.08-15.63,19.31-28.16,40.46-36.22,61.17-22.4,57.46-17.11,138.17,30.52,173.78,16.06,12.01,35.34,20.26,53.99,28.24,14.21,6.08,28.91,12.37,42.12,20.29,8.8,5.28,17.1,10.5,25.13,15.54,45.85,28.82,82.07,51.59,145.98,44.05,21.38-2.52,60.34-17.76,99.17-46.1,30.51-22.27,70.13-59.4,85.62-109.82h0c12.16-39.59,8.62-85.44-9.72-125.82-18.95-41.71-50.85-72.77-89.81-87.46-15.98-6.02-33.58-6.35-50.6-6.67-14.06-.27-28.61-.54-42.33-3.99-15.11-3.79-29.76-8.53-43.92-13.11-28.26-9.14-54.95-17.77-82.6-18.36-1-.02-2-.03-2.99-.03Z"/>
      <path class="cls-1" d="M417.69,463.53c-48.15,0-88.72-10.66-107.64-21.27-56.75-31.82-72.78-71.82-93.08-122.45-3.52-8.79-7.17-17.88-11.18-27.31-5.97-14.05-14.13-27.72-22.02-40.93-10.46-17.52-21.27-35.63-27.27-55.01-17.88-57.72,25.77-127.08,78.3-160.8,18.87-12.12,41.63-21.95,65.82-28.44C317.74,2.72,336.35.26,355.95.02c78.93-.97,111.47,43.75,145.97,91.11,8.75,12.01,17.79,24.42,27.74,36.32,8.93,10.68,20.44,19.38,31.57,27.8,13.71,10.37,27.9,21.09,37.47,35.64,23.18,35.23,30.83,79.64,21.53,125.04-8.99,43.91-33.36,83.53-66.86,108.69h0c-42.61,32.02-96.94,38.83-135.02,38.91-.22,0-.45,0-.67,0ZM358.57,2c-.86,0-1.72,0-2.59.02-19.43.25-37.88,2.68-54.83,7.23-24,6.43-46.57,16.18-65.26,28.19-51.9,33.31-95.06,101.71-77.47,158.52,5.93,19.16,16.68,37.17,27.07,54.58,7.92,13.28,16.12,27,22.15,41.18,4.02,9.44,7.67,18.55,11.19,27.35,20.15,50.27,36.06,89.98,92.2,121.45,18.69,10.48,58.88,21.01,106.66,21.01.23,0,.44,0,.67,0,37.77-.08,91.66-6.82,133.82-38.51h0c33.11-24.87,57.2-64.05,66.1-107.5,9.19-44.88,1.65-88.76-21.24-123.54-9.39-14.26-23.43-24.88-37.01-35.14-11.22-8.48-22.82-17.26-31.9-28.11-10-11.95-19.06-24.4-27.82-36.43-17.49-24-34-46.68-56.03-63.41-24.1-18.31-51.4-26.89-85.71-26.89Z"/>
      <path class="cls-1" d="M443.55,559.79c-56.66,0-90.9-32.58-126.84-66.77-10.76-10.24-21.89-20.82-33.82-30.74-10.7-8.9-23.59-15.39-36.06-21.67-15.35-7.73-31.23-15.73-43.27-28.32-29.14-30.49-44.64-72.8-43.66-119.14.95-44.81,17.8-88.17,46.23-118.94h0c36.16-39.15,88.38-55.62,125.83-62.55,47.63-8.81,89.75-5.62,110.37,1.45,61.54,21.1,84.5,57.56,113.57,103.72,5.05,8.02,10.27,16.3,15.91,24.86,8.4,12.75,18.88,24.72,29.02,36.31,13.43,15.35,27.32,31.22,36.71,49.22,27.96,53.57-2.51,129.65-48.12,172.25-16.38,15.31-37,29.08-59.64,39.81-16,7.6-33.87,13.36-53.11,17.13-11.87,2.32-22.87,3.39-33.13,3.39ZM389.06,108.3c-17.04,0-36.37,1.56-56.74,5.33-37.15,6.87-88.94,23.19-124.72,61.94h0c-28.1,30.42-44.75,73.29-45.7,117.63-.97,45.8,14.33,87.61,43.1,117.71,11.8,12.34,27.52,20.26,42.72,27.92,12.56,6.33,25.55,12.87,36.43,21.92,11.98,9.96,23.13,20.57,33.92,30.83,21.52,20.47,41.84,39.81,66.51,52.31,27.67,14.02,56.81,17.38,91.69,10.56,19.07-3.74,36.78-9.45,52.63-16.97,22.45-10.64,42.9-24.29,59.13-39.46,45.06-42.1,75.23-117.14,47.71-169.87-9.28-17.78-23.09-33.56-36.44-48.82-10.18-11.64-20.71-23.67-29.19-36.53-5.65-8.57-10.88-16.87-15.93-24.89-28.86-45.83-51.65-82.03-112.53-102.9-11.59-3.97-30.11-6.7-52.62-6.7Z"/>
      <path class="cls-1" d="M283.68,487.59c-56.65,0-90.9-32.58-126.84-66.77-10.76-10.24-21.89-20.82-33.82-30.74-10.71-8.9-23.59-15.39-36.06-21.67-15.35-7.73-31.23-15.73-43.27-28.32C14.56,309.59-.94,267.28.04,220.94c.95-44.81,17.8-88.17,46.23-118.94h0c36.16-39.15,88.38-55.62,125.83-62.55,47.63-8.81,89.75-5.62,110.37,1.45,61.54,21.1,84.5,57.56,113.57,103.72,5.05,8.02,10.27,16.3,15.91,24.85,8.4,12.74,18.88,24.72,29.02,36.31,13.43,15.35,27.32,31.22,36.71,49.22,27.96,53.57-2.51,129.65-48.12,172.25-16.38,15.31-37,29.08-59.64,39.81-16,7.6-33.87,13.36-53.11,17.13-11.87,2.32-22.87,3.39-33.13,3.39ZM229.2,36.09c-17.04,0-36.37,1.56-56.74,5.33-37.15,6.87-88.94,23.19-124.72,61.94h0C19.64,133.78,2.99,176.65,2.04,220.98c-.97,45.81,14.33,87.61,43.1,117.71,11.8,12.34,27.52,20.26,42.72,27.92,12.56,6.33,25.55,12.87,36.43,21.92,11.98,9.96,23.13,20.57,33.92,30.83,21.52,20.47,41.84,39.81,66.51,52.31,27.67,14.03,56.81,17.38,91.69,10.56,19.07-3.74,36.78-9.45,52.63-16.97,22.45-10.64,42.9-24.29,59.13-39.46,45.06-42.1,75.23-117.14,47.71-169.87-9.28-17.78-23.09-33.56-36.44-48.83-10.18-11.63-20.71-23.67-29.19-36.52-5.65-8.57-10.88-16.87-15.93-24.89-28.86-45.83-51.65-82.03-112.53-102.9-11.59-3.97-30.11-6.7-52.62-6.7Z"/>
    </g>
  </g>
</svg>