<?xml version="1.0" encoding="UTF-8"?>
<svg id="Camada_2" data-name="Camada 2" xmlns="http://www.w3.org/2000/svg" viewBox="0 0 598.67 647.76">
  <defs>
    <style>
      .cls-1 {
        fill: #e6efe6;
      }
    </style>
  </defs>
  <g id="Camada_1-2" data-name="Camada 1">
    <g>
      <path class="cls-1" d="M266.64,544.19c-75.24,0-107.71-43.39-142.05-89.28-8.9-11.89-18.1-24.19-28.21-35.96-9.07-10.56-20.69-19.11-31.93-27.39-13.85-10.19-28.16-20.73-37.93-35.15C2.9,321.49-5.32,277.18,3.39,231.66c8.42-44.02,32.28-83.95,65.45-109.55h0c42.19-32.56,96.43-40.08,134.51-40.65,48.44-.73,89.43,9.46,108.57,19.87,57.16,31.08,73.7,70.87,94.65,121.24,3.64,8.75,7.4,17.79,11.53,27.16,6.15,13.97,14.49,27.53,22.55,40.65,10.68,17.38,21.72,35.35,27.98,54.66,18.62,57.48-24.13,127.41-76.22,161.79-18.71,12.36-41.34,22.49-65.45,29.29-17.05,4.82-35.63,7.51-55.22,8.02-1.71.04-3.41.06-5.08.06ZM208.24,83.42c-1.62,0-3.24.01-4.87.04-37.77.57-91.56,8-133.31,40.23h0C37.27,148.99,13.69,188.48,5.35,232.03c-8.61,45-.5,88.77,22.83,123.26,9.57,14.14,23.75,24.57,37.46,34.66,11.33,8.34,23.04,16.96,32.26,27.69,10.15,11.82,19.37,24.15,28.29,36.06,17.79,23.78,34.6,46.24,56.84,62.69,24.94,18.45,53.11,26.62,88.64,25.73,19.43-.5,37.84-3.17,54.73-7.94,23.91-6.74,46.35-16.78,64.89-29.03,51.46-33.98,93.74-102.93,75.42-159.51-6.18-19.08-17.16-36.95-27.78-54.23-8.1-13.17-16.47-26.79-22.68-40.89-4.14-9.39-7.9-18.45-11.55-27.2-20.8-50.01-37.22-89.5-93.76-120.25-18.27-9.94-56.79-19.66-102.72-19.66Z"/>
      <path class="cls-1" d="M274.33,585.4c-2.61,0-5.19-.06-7.75-.17-22.4-1-46.66-6.11-70.16-14.79-16.62-6.12-33.24-14.87-49.38-25.98-64.98-44.75-65.75-100.09-66.58-158.67-.21-14.85-.42-30.21-1.68-45.67-1.13-13.88-5.5-27.63-9.73-40.92-5.21-16.38-10.6-33.32-10.02-50.73,1.41-42.15,20.81-82.82,54.62-114.53,32.7-30.66,75.47-48.94,117.34-50.14h0c53.27-1.52,101.57,24.27,132.71,46.19,39.61,27.89,66.79,60.22,76.15,79.9,27.96,58.75,17.96,100.66,5.29,153.72-2.2,9.21-4.47,18.74-6.64,28.75-3.23,14.92-4.46,30.79-5.65,46.14-1.58,20.34-3.21,41.37-9.5,60.66-17.96,55.08-88.29,86.25-149.02,86.25ZM231.05,85.8c-41.39,1.19-83.69,19.27-116.03,49.6-33.42,31.34-52.59,71.52-53.99,113.14-.57,17.06,4.76,33.84,9.92,50.06,4.26,13.4,8.67,27.27,9.82,41.37,1.26,15.53,1.48,30.92,1.68,45.81.42,29.7.81,57.74,9.13,84.12,9.33,29.59,27.31,52.76,56.58,72.92,16.01,11.02,32.48,19.68,48.94,25.75,23.31,8.6,47.36,13.67,69.56,14.66,61.61,2.77,136.34-28.16,154.78-84.7,6.22-19.07,7.84-39.98,9.41-60.19,1.19-15.42,2.43-31.36,5.69-46.41,2.17-10.03,4.45-19.57,6.65-28.79,12.57-52.68,22.51-94.29-5.15-152.39-9.25-19.44-36.19-51.44-75.5-79.12-30.89-21.75-78.77-47.34-131.5-45.83h0Z"/>
      <path class="cls-1" d="M334.84,492.33c-39.68,0-76.99-12.81-103.76-25.17-43.97-20.31-76.52-47.23-89.28-64.91-38.07-52.76-35.76-95.79-32.84-150.26.51-9.46,1.03-19.24,1.36-29.48.5-15.26-1.14-31.09-2.73-46.4-2.11-20.29-4.28-41.27-1.56-61.38C114.14,54.86,182.94,10.33,244.78,1.88c22.22-3.04,47-2.38,71.68,1.93,17.45,3.04,35.37,8.65,53.25,16.68,71.96,32.34,82.67,86.63,94.01,144.11,2.88,14.57,5.85,29.64,9.86,44.63,3.6,13.45,10.38,26.19,16.93,38.51,8.07,15.18,16.42,30.88,18.97,48.11,6.19,41.72-5.58,85.22-33.14,122.48-26.65,36.04-65.44,61.71-106.42,70.42h0c-11.76,2.5-23.53,3.59-35.09,3.59ZM273.34,2c-9.74,0-19.23.62-28.29,1.86-61.1,8.35-129.06,52.21-137.03,111.14-2.69,19.88-.53,40.73,1.57,60.91,1.6,15.38,3.25,31.28,2.74,46.67-.33,10.26-.86,20.05-1.37,29.52-2.9,54.08-5.19,96.8,32.47,148.99,12.6,17.46,44.85,44.1,88.49,64.26,34.29,15.84,86,32.42,137.59,21.44h0c40.51-8.61,78.86-34,105.23-69.66,27.24-36.84,38.88-79.81,32.77-121-2.51-16.89-10.77-32.43-18.76-47.46-6.6-12.42-13.43-25.26-17.09-38.93-4.03-15.05-7.01-30.15-9.89-44.76-5.75-29.14-11.18-56.66-24.1-81.11-14.5-27.43-36.35-46.99-68.77-61.56-17.73-7.96-35.48-13.52-52.77-16.53-14.41-2.51-28.85-3.78-42.78-3.78Z"/>
      <path class="cls-1" d="M422.41,647.76c-39.68,0-76.99-12.81-103.76-25.17-43.97-20.31-76.52-47.23-89.28-64.91-38.07-52.76-35.76-95.79-32.84-150.26.51-9.46,1.03-19.24,1.36-29.48.5-15.26-1.14-31.09-2.73-46.4-2.11-20.29-4.28-41.27-1.56-61.38,8.1-59.88,76.9-104.4,138.74-112.86,22.22-3.04,47-2.38,71.68,1.93,17.45,3.04,35.37,8.65,53.25,16.68,71.96,32.34,82.67,86.63,94.01,144.11,2.88,14.57,5.85,29.64,9.86,44.63,3.6,13.45,10.38,26.19,16.93,38.51,8.07,15.18,16.42,30.88,18.97,48.11,6.19,41.72-5.58,85.21-33.14,122.48-26.65,36.04-65.44,61.71-106.42,70.42h0c-11.76,2.5-23.53,3.59-35.09,3.59ZM360.92,157.42c-9.74,0-19.23.62-28.29,1.86-61.1,8.35-129.06,52.21-137.03,111.14-2.69,19.88-.53,40.73,1.57,60.91,1.6,15.38,3.25,31.28,2.74,46.67-.33,10.26-.86,20.05-1.37,29.52-2.9,54.08-5.19,96.8,32.47,148.99,12.6,17.46,44.85,44.1,88.49,64.26,34.29,15.84,86,32.42,137.59,21.44h0c40.51-8.61,78.86-34,105.23-69.66,27.24-36.84,38.88-79.81,32.77-121-2.51-16.89-10.77-32.43-18.76-47.46-6.6-12.42-13.43-25.26-17.09-38.93-4.03-15.05-7.01-30.15-9.89-44.76-5.75-29.14-11.18-56.66-24.1-81.11-14.5-27.43-36.35-46.99-68.77-61.56-17.73-7.96-35.48-13.52-52.77-16.53-14.4-2.51-28.85-3.78-42.78-3.78Z"/>
    </g>
  </g>
</svg>