<?xml version="1.0" encoding="UTF-8"?>
<svg id="Camada_2" data-name="Camada 2" xmlns="http://www.w3.org/2000/svg" viewBox="0 0 671.86 560.8">
  <defs>
    <style>
      .cls-1 {
        fill: #e6efe6;
      }
    </style>
  </defs>
  <g id="Camada_1-2" data-name="Camada 1">
    <g>
      <path class="cls-1" d="M453.52,459.51c-50.37,0-83.2-20.64-123.38-45.9-8.02-5.04-16.31-10.25-25.09-15.52-13.06-7.83-27.68-14.09-41.82-20.14-18.78-8.03-38.2-16.34-54.5-28.53-48.58-36.33-54.09-118.36-31.35-176.69,8.16-20.94,20.82-42.32,36.61-61.83,11.17-13.81,24.81-26.77,40.55-38.51,63.45-47.32,116.22-30.25,172.09-12.18,14.12,4.57,28.73,9.29,43.76,13.06,13.45,3.38,27.85,3.65,41.77,3.91,17.23.33,35.05.66,51.43,6.83,39.59,14.92,71.98,46.44,91.21,88.76,18.59,40.92,22.17,87.42,9.84,127.58h0c-15.68,51.08-55.71,88.61-86.53,111.11-39.2,28.61-78.65,44-100.35,46.56-8.53,1.01-16.59,1.48-24.23,1.48ZM340.27,44.69c-29.7,0-56.45,9.61-83.94,30.1-15.54,11.6-29,24.38-40.01,38-15.6,19.27-28.1,40.38-36.14,61.04-22.33,57.28-17.09,137.73,30.35,173.2,16.01,11.98,35.27,20.21,53.89,28.18,14.23,6.09,28.95,12.38,42.18,20.32,8.81,5.28,17.11,10.5,25.14,15.55,39.76,24.99,72.27,45.42,121.91,45.43,7.5,0,15.38-.47,23.74-1.45,21.32-2.52,60.18-17.72,98.94-46,30.45-22.23,69.99-59.27,85.43-109.56h0c12.13-39.47,8.59-85.2-9.7-125.46-18.9-41.59-50.69-72.56-89.53-87.19-15.9-5.99-33.45-6.32-50.43-6.64-14.09-.27-28.67-.54-42.44-4-15.13-3.8-29.78-8.54-43.95-13.12-28.22-9.13-54.88-17.75-82.46-18.34-1-.02-1.99-.03-2.98-.03Z"/>
      <path class="cls-1" d="M418.19,464.53c-48.24,0-88.9-10.69-107.88-21.33-56.9-31.91-72.96-71.97-93.3-122.7-3.52-8.79-7.17-17.88-11.17-27.3-5.96-14.02-14.11-27.67-21.99-40.87-10.47-17.54-21.3-35.68-27.32-55.12-17.95-57.95,25.82-127.55,78.51-161.37,18.91-12.14,41.72-22,65.96-28.5C318.15,2.73,336.8.27,356.44.02c79.12-.98,111.81,43.85,146.38,91.31,8.74,12,17.78,24.41,27.72,36.29,8.89,10.63,20.38,19.32,31.49,27.72,13.75,10.39,27.96,21.14,37.59,35.76,23.26,35.34,30.93,79.88,21.6,125.42-9.02,44.03-33.45,83.76-67.04,108.99-42.72,32.1-97.16,38.93-135.32,39.01h-.67ZM359.06,3c-.86,0-1.72,0-2.58.02-19.39.25-37.8,2.67-54.7,7.22-23.95,6.42-46.47,16.15-65.12,28.13-51.74,33.21-94.79,101.37-77.26,157.95,5.91,19.1,16.65,37.08,27.03,54.47,7.93,13.29,16.14,27.03,22.18,41.24,4.02,9.45,7.67,18.55,11.2,27.36,20.11,50.18,36,89.81,91.98,121.2,18.64,10.45,58.72,20.95,106.41,20.95h.67c37.7-.08,91.47-6.8,133.52-38.41h0c33.01-24.8,57.04-63.87,65.91-107.2,9.17-44.75,1.65-88.5-21.17-123.17-9.34-14.19-23.35-24.78-36.89-35.02-11.24-8.5-22.87-17.29-31.98-28.19-10.01-11.97-19.07-24.41-27.84-36.45-17.46-23.97-33.96-46.62-55.92-63.31-24.01-18.24-51.21-26.79-85.41-26.79Z"/>
      <path class="cls-1" d="M444.01,560.8c-56.82,0-91.13-32.65-127.15-66.92-10.75-10.23-21.88-20.81-33.79-30.72-10.66-8.86-23.52-15.34-35.96-21.61-15.39-7.75-31.31-15.77-43.4-28.42-29.23-30.58-44.78-73.02-43.8-119.49.96-44.94,17.85-88.41,46.36-119.27,36.25-39.25,88.58-55.76,126.1-62.7,47.72-8.82,89.94-5.62,110.62,1.47,61.71,21.16,84.71,57.68,113.83,103.93,5.05,8.01,10.26,16.3,15.9,24.85,8.38,12.72,18.85,24.68,28.98,36.26,13.45,15.37,27.36,31.27,36.78,49.31,28.07,53.78-2.47,130.12-48.22,172.85-16.42,15.35-37.08,29.14-59.77,39.9-16.04,7.62-33.95,13.39-53.22,17.17-11.92,2.33-22.96,3.4-33.26,3.4ZM389.57,109.3c-17.01,0-36.31,1.56-56.66,5.32-37.07,6.85-88.75,23.14-124.44,61.79h0c-28.02,30.33-44.62,73.08-45.56,117.3-.97,45.67,14.29,87.35,42.97,117.36,11.74,12.28,27.42,20.18,42.58,27.82,12.59,6.34,25.6,12.9,36.53,21.98,11.99,9.97,23.15,20.59,33.94,30.85,21.49,20.44,41.79,39.75,66.39,52.23,27.57,13.97,56.6,17.31,91.37,10.52,19.03-3.73,36.7-9.43,52.52-16.93,22.41-10.62,42.81-24.24,59-39.38,44.93-41.97,75.02-116.76,47.61-169.27-9.25-17.73-23.04-33.49-36.38-48.73-10.19-11.65-20.73-23.69-29.23-36.58-5.65-8.57-10.88-16.87-15.93-24.9-28.81-45.75-51.56-81.88-112.27-102.69-11.55-3.96-30-6.68-52.44-6.68Z"/>
      <path class="cls-1" d="M284.15,488.59c-56.82,0-91.13-32.65-127.15-66.92-10.75-10.23-21.88-20.81-33.79-30.72-10.66-8.86-23.52-15.34-35.96-21.61-15.39-7.75-31.31-15.77-43.4-28.42C14.61,310.34-.94,267.9.04,221.43c.95-44.93,17.85-88.41,46.36-119.27h0c36.25-39.25,88.58-55.76,126.1-62.7,47.72-8.82,89.94-5.62,110.62,1.47,61.71,21.16,84.71,57.68,113.83,103.93,5.05,8.01,10.26,16.3,15.9,24.85,8.38,12.72,18.85,24.68,28.98,36.25,13.45,15.37,27.36,31.27,36.78,49.31,28.07,53.78-2.47,130.12-48.22,172.85-16.42,15.35-37.09,29.14-59.77,39.9-16.04,7.62-33.95,13.39-53.22,17.17-11.92,2.33-22.96,3.4-33.26,3.41ZM229.71,37.09c-17.01,0-36.31,1.56-56.66,5.32-37.07,6.85-88.75,23.14-124.44,61.79h0C20.59,134.53,3.98,177.28,3.04,221.5c-.97,45.67,14.29,87.35,42.97,117.36,11.74,12.28,27.42,20.18,42.58,27.82,12.59,6.34,25.61,12.9,36.53,21.98,11.99,9.97,23.15,20.59,33.94,30.85,21.49,20.44,41.79,39.75,66.39,52.23,27.57,13.97,56.6,17.31,91.37,10.51,19.03-3.73,36.7-9.42,52.52-16.93,22.4-10.62,42.81-24.24,59-39.38,44.93-41.97,75.02-116.76,47.61-169.27-9.25-17.73-23.04-33.49-36.38-48.73-10.19-11.65-20.73-23.69-29.23-36.58-5.65-8.57-10.88-16.87-15.93-24.9-28.8-45.75-51.56-81.88-112.27-102.69-11.55-3.96-30-6.68-52.44-6.68Z"/>
    </g>
  </g>
</svg>