<?xml version="1.0" encoding="UTF-8"?>
<svg id="Camada_2" data-name="Camada 2" xmlns="http://www.w3.org/2000/svg" viewBox="0 0 672.86 561.8">
  <defs>
    <style>
      .cls-1 {
        fill: #e6efe6;
      }
    </style>
  </defs>
  <g id="Camada_1-2" data-name="Camada 1">
    <g>
      <path class="cls-1" d="M454,460.51c-50.48,0-83.38-20.68-123.62-45.98-8.01-5.04-16.3-10.25-25.08-15.51-13.03-7.82-27.64-14.06-41.76-20.11-18.81-8.05-38.26-16.37-54.61-28.59-48.77-36.47-54.33-118.77-31.52-177.27,8.18-20.99,20.86-42.42,36.68-61.97,11.19-13.84,24.86-26.83,40.64-38.6,63.66-47.47,116.55-30.37,172.55-12.26,14.12,4.57,28.71,9.29,43.73,13.06,13.39,3.36,27.76,3.63,41.66,3.9,17.27.33,35.14.67,51.6,6.87,39.71,14.97,72.2,46.58,91.48,89.02,18.64,41.03,22.23,87.66,9.86,127.94-15.73,51.21-55.84,88.83-86.72,111.36-39.27,28.66-78.82,44.08-100.59,46.65-8.56,1.01-16.64,1.49-24.31,1.49ZM340.77,45.68c-29.59,0-56.25,9.58-83.64,30.01-15.51,11.57-28.94,24.33-39.92,37.91-15.57,19.23-28.04,40.29-36.07,60.9-22.26,57.11-17.06,137.29,30.19,172.62,15.97,11.94,35.19,20.17,53.78,28.12,14.25,6.09,28.98,12.4,42.24,20.35,8.81,5.28,17.12,10.5,25.15,15.55,39.7,24.95,72.15,45.35,121.67,45.35,7.47,0,15.33-.46,23.66-1.45,21.25-2.51,60.01-17.68,98.7-45.91,30.39-22.18,69.85-59.15,85.25-109.31h0c12.09-39.36,8.56-84.96-9.68-125.11-18.84-41.47-50.54-72.34-89.25-86.93-15.82-5.96-33.33-6.29-50.26-6.61-14.12-.27-28.72-.54-42.55-4.01-15.15-3.8-29.81-8.54-43.99-13.13-28.18-9.12-54.81-17.73-82.32-18.31-.99-.02-1.98-.03-2.97-.03Z"/>
      <path class="cls-1" d="M418.69,465.53c-48.33,0-89.09-10.72-108.13-21.39-57.06-31.99-73.15-72.13-93.52-122.95-3.52-8.79-7.16-17.87-11.17-27.29-5.95-13.99-14.09-27.62-21.96-40.81-10.48-17.56-21.33-35.73-27.36-55.23-18.02-58.17,25.87-128.02,78.72-161.93,18.95-12.17,41.81-22.05,66.1-28.56C318.56,2.73,337.26.26,356.94.01c79.4-.94,112.14,43.95,146.79,91.52,8.73,11.99,17.77,24.39,27.7,36.27,8.86,10.59,20.32,19.26,31.41,27.64,13.78,10.42,28.03,21.19,37.7,35.89,23.33,35.45,31.03,80.13,21.67,125.8-9.04,44.15-33.55,83.98-67.23,109.29-42.83,32.18-97.39,39.03-135.62,39.11-.22,0-.45,0-.67,0ZM359.56,4c-.86,0-1.71,0-2.58.02-19.35.25-37.71,2.67-54.58,7.2-23.9,6.41-46.37,16.11-64.98,28.07-51.58,33.11-94.51,101.03-77.06,157.39,5.9,19.05,16.61,37,26.98,54.36,7.94,13.31,16.16,27.06,22.21,41.3,4.02,9.45,7.67,18.56,11.2,27.37,20.08,50.09,35.93,89.65,91.76,120.95,18.58,10.42,58.57,20.88,106.17,20.88.22,0,.44,0,.67,0,37.62-.08,91.28-6.79,133.22-38.31h0c32.92-24.73,56.87-63.69,65.72-106.9,9.14-44.62,1.65-88.23-21.1-122.79-9.29-14.12-23.26-24.68-36.77-34.9-11.27-8.52-22.91-17.32-32.06-28.26-10.02-11.98-19.09-24.43-27.86-36.48-17.44-23.94-33.92-46.56-55.82-63.21-23.92-18.17-51.02-26.68-85.11-26.68Z"/>
      <path class="cls-1" d="M444.48,561.8c-56.98,0-91.37-32.72-127.46-67.06-10.75-10.23-21.86-20.8-33.77-30.7-10.62-8.83-23.45-15.29-35.87-21.54-15.43-7.77-31.38-15.81-43.54-28.52-29.32-30.68-44.93-73.25-43.94-119.85.96-45.05,17.91-88.65,46.49-119.6h0c36.34-39.36,88.78-55.9,126.38-62.85,47.81-8.84,90.13-5.62,110.87,1.49,61.88,21.21,84.92,57.81,114.09,104.14,5.04,8.01,10.26,16.3,15.89,24.84,8.36,12.69,18.82,24.64,28.94,36.2,13.47,15.4,27.4,31.31,36.85,49.41,28.18,53.99-2.44,130.58-48.32,173.45-16.46,15.38-37.17,29.21-59.89,39.98-16.08,7.63-34.03,13.42-53.34,17.21-11.97,2.34-23.05,3.42-33.39,3.42ZM390.09,110.29c-16.98,0-36.26,1.56-56.58,5.31-37,6.84-88.57,23.08-124.17,61.63h0c-27.94,30.24-44.49,72.88-45.43,116.97-.97,45.54,14.24,87.09,42.83,117,11.68,12.22,27.32,20.1,42.45,27.72,12.61,6.35,25.66,12.92,36.62,22.04,12.01,9.98,23.17,20.6,33.97,30.88,21.46,20.42,41.73,39.7,66.28,52.14,27.47,13.92,56.4,17.25,91.05,10.47,18.99-3.72,36.62-9.4,52.4-16.89,22.36-10.6,42.72-24.19,58.88-39.29,44.79-41.84,74.81-116.37,47.51-168.67-9.22-17.68-22.99-33.41-36.31-48.63-10.2-11.66-20.75-23.72-29.27-36.63-5.66-8.58-10.88-16.88-15.94-24.91-28.75-45.66-51.46-81.73-112.01-102.48-11.51-3.95-29.9-6.65-52.27-6.65Z"/>
      <path class="cls-1" d="M284.61,489.59c-56.98,0-91.37-32.72-127.46-67.06-10.75-10.23-21.86-20.8-33.77-30.7-10.62-8.83-23.45-15.29-35.87-21.54-15.43-7.77-31.38-15.81-43.54-28.52C14.66,311.09-.95,268.52.04,221.92c.96-45.05,17.91-88.65,46.49-119.6h0c36.34-39.36,88.79-55.9,126.38-62.85,47.81-8.84,90.13-5.62,110.87,1.49,61.88,21.21,84.92,57.81,114.09,104.14,5.04,8.01,10.26,16.3,15.89,24.84,8.36,12.69,18.82,24.64,28.94,36.2,13.47,15.4,27.4,31.31,36.85,49.41,28.18,53.99-2.44,130.58-48.32,173.45-16.46,15.38-37.17,29.21-59.89,39.98-16.08,7.63-34.03,13.42-53.34,17.21-11.97,2.34-23.05,3.42-33.39,3.42ZM230.22,38.09c-16.98,0-36.26,1.56-56.58,5.31-37,6.84-88.57,23.08-124.17,61.63h0C21.54,135.28,4.98,177.91,4.04,222c-.97,45.54,14.24,87.09,42.83,117,11.68,12.22,27.32,20.1,42.45,27.72,12.61,6.35,25.66,12.92,36.62,22.04,12.01,9.98,23.17,20.6,33.97,30.88,21.46,20.42,41.73,39.7,66.28,52.14,27.47,13.92,56.4,17.25,91.05,10.47,18.99-3.72,36.62-9.4,52.4-16.89,22.36-10.6,42.72-24.19,58.88-39.29,44.79-41.84,74.81-116.37,47.51-168.67-9.22-17.68-22.99-33.41-36.31-48.63-10.2-11.66-20.75-23.72-29.27-36.63-5.66-8.58-10.88-16.88-15.94-24.91-28.75-45.66-51.46-81.73-112.01-102.48-11.51-3.95-29.9-6.65-52.27-6.65Z"/>
    </g>
  </g>
</svg>