<?xml version="1.0" encoding="UTF-8"?>
<svg id="Camada_2" data-name="Camada 2" xmlns="http://www.w3.org/2000/svg" viewBox="0 0 600.67 649.76">
  <defs>
    <style>
      .cls-1 {
        fill: #e6efe6;
      }
    </style>
  </defs>
  <g id="Camada_1-2" data-name="Camada 1">
    <g>
      <path class="cls-1" d="M267.63,546.19c-75.72,0-108.34-43.59-142.83-89.68-8.89-11.88-18.08-24.16-28.17-35.91-8.99-10.48-20.57-18.99-31.76-27.23-13.92-10.24-28.3-20.83-38.16-35.4C2.92,322.83-5.36,278.25,3.41,232.47c8.47-44.26,32.46-84.41,65.82-110.15h0c42.41-32.73,96.87-40.29,135.1-40.86,48.61-.72,89.81,9.51,109.07,19.99,57.47,31.25,74.07,71.18,95.1,121.73,3.63,8.74,7.39,17.78,11.52,27.14,6.13,13.91,14.44,27.44,22.49,40.53,10.71,17.43,21.79,35.45,28.07,54.87,18.77,57.94-24.22,128.34-76.62,162.94-18.79,12.42-41.52,22.59-65.73,29.41-17.13,4.84-35.79,7.55-55.47,8.05-1.73.04-3.44.07-5.13.07ZM209.25,85.42c-1.61,0-3.23.01-4.86.04-37.62.56-91.18,7.96-132.72,40.02h0C39.07,150.64,15.62,189.91,7.33,233.22c-8.56,44.74-.51,88.25,22.68,122.51,9.47,14,23.58,24.38,37.22,34.42,11.38,8.37,23.14,17.03,32.43,27.85,10.17,11.85,19.4,24.19,28.33,36.12,17.75,23.72,34.51,46.12,56.63,62.48,24.75,18.31,52.73,26.43,88.02,25.53,19.34-.5,37.67-3.16,54.48-7.9,23.82-6.72,46.16-16.71,64.61-28.9,51.15-33.77,93.2-102.24,75.02-158.37-6.14-18.97-17.09-36.78-27.68-54.01-8.11-13.2-16.5-26.85-22.74-41.01-4.14-9.4-7.91-18.46-11.55-27.22-20.72-49.82-37.09-89.18-93.31-119.76-18.16-9.88-56.48-19.54-102.23-19.54Z"/>
      <path class="cls-1" d="M275.32,587.4c-2.62,0-5.21-.06-7.79-.17-22.5-1-46.87-6.14-70.46-14.85-16.7-6.15-33.39-14.93-49.6-26.09-65.4-45.05-66.18-100.63-67.01-159.48-.21-14.83-.42-30.18-1.67-45.61-1.12-13.76-5.47-27.46-9.69-40.7-5.24-16.46-10.65-33.49-10.06-51.07,1.42-42.42,20.93-83.34,54.94-115.22,32.87-30.83,75.88-49.2,118-50.41h0c53.52-1.56,102.05,24.36,133.31,46.37,39.75,27.99,67.06,60.49,76.48,80.28,28.12,59.06,18.08,101.13,5.36,154.38-2.2,9.21-4.47,18.73-6.64,28.73-3.22,14.85-4.45,30.69-5.63,46-1.58,20.4-3.22,41.49-9.55,60.89-18.1,55.52-88.89,86.94-149.98,86.94ZM232.08,87.8c-41.15,1.18-83.21,19.17-115.38,49.33-33.23,31.16-52.29,71.09-53.67,112.44-.57,16.89,4.74,33.58,9.88,49.73,4.28,13.46,8.71,27.37,9.86,41.59,1.26,15.56,1.48,30.97,1.69,45.87.42,29.62.81,57.6,9.08,83.84,9.26,29.37,27.12,52.37,56.19,72.4,15.94,10.97,32.33,19.59,48.72,25.63,23.21,8.57,47.16,13.62,69.26,14.6,61.23,2.76,135.5-27.92,153.79-84.01,6.18-18.95,7.8-39.8,9.36-59.96,1.2-15.45,2.44-31.42,5.71-46.54,2.17-10.04,4.45-19.58,6.66-28.81,12.53-52.49,22.42-93.94-5.08-151.73-9.2-19.32-36.01-51.16-75.17-78.73-30.76-21.66-78.43-47.15-130.89-45.64h0Z"/>
      <path class="cls-1" d="M335.84,494.33c-39.86,0-77.31-12.85-104.18-25.26-44.14-20.39-76.84-47.45-89.67-65.23-38.27-53.05-35.96-96.23-33.03-150.9.51-9.45,1.03-19.23,1.36-29.45.5-15.19-1.14-30.99-2.73-46.26-2.11-20.35-4.29-41.39-1.55-61.62C114.21,55.25,183.43,10.39,245.65,1.89c22.31-3.06,47.21-2.39,71.99,1.94,17.53,3.05,35.53,8.69,53.49,16.75,72.43,32.56,83.19,87.09,94.58,144.83,2.87,14.56,5.84,29.61,9.85,44.56,3.57,13.34,10.32,26.03,16.85,38.3,8.11,15.25,16.5,31.03,19.08,48.43,6.23,41.98-5.61,85.74-33.33,123.22-26.79,36.23-65.8,62.04-107.01,70.81h0c-11.83,2.52-23.67,3.61-35.3,3.61ZM274.34,4c-9.69,0-19.14.62-28.15,1.85-60.73,8.3-128.27,51.82-136.18,110.29-2.68,19.76-.52,40.56,1.57,60.67,1.6,15.41,3.25,31.35,2.75,46.81-.33,10.27-.86,20.06-1.37,29.54-2.89,53.88-5.17,96.44,32.28,148.35,12.52,17.35,44.62,43.85,88.1,63.94,26.47,12.23,63.35,24.89,102.49,24.9,11.37,0,22.92-1.07,34.47-3.53h0c40.27-8.56,78.41-33.81,104.63-69.27,27.08-36.62,38.66-79.33,32.59-120.26-2.48-16.72-10.7-32.18-18.66-47.14-6.63-12.47-13.49-25.36-17.18-39.14-4.04-15.08-7.02-30.2-9.91-44.82-5.73-29.06-11.15-56.51-24.01-80.84-14.39-27.22-36.09-46.64-68.29-61.12-17.65-7.93-35.33-13.46-52.53-16.46-14.35-2.5-28.73-3.76-42.6-3.76Z"/>
      <path class="cls-1" d="M423.41,649.76c-39.86,0-77.31-12.85-104.18-25.26-44.14-20.39-76.84-47.45-89.67-65.23-38.27-53.05-35.96-96.23-33.03-150.9.51-9.45,1.03-19.23,1.36-29.45.5-15.19-1.14-30.99-2.73-46.27-2.11-20.35-4.29-41.39-1.55-61.62,8.16-60.35,77.39-105.21,139.6-113.71,22.32-3.06,47.21-2.39,71.99,1.94,17.54,3.05,35.53,8.69,53.49,16.75,72.43,32.56,83.19,87.09,94.58,144.83,2.87,14.56,5.84,29.61,9.85,44.56,3.57,13.34,10.32,26.03,16.85,38.3,8.11,15.25,16.5,31.03,19.08,48.43,6.23,41.98-5.61,85.74-33.33,123.22-26.8,36.23-65.8,62.04-107.01,70.81-11.83,2.52-23.67,3.61-35.3,3.61ZM361.92,159.42c-9.69,0-19.14.61-28.15,1.85-60.73,8.3-128.27,51.82-136.18,110.29-2.68,19.76-.52,40.56,1.57,60.67,1.6,15.41,3.25,31.35,2.75,46.81-.33,10.27-.86,20.06-1.37,29.54-2.89,53.88-5.17,96.45,32.28,148.35,12.52,17.35,44.62,43.85,88.1,63.94,34.16,15.78,85.64,32.29,136.96,21.37h0c40.27-8.56,78.41-33.81,104.63-69.27,27.08-36.62,38.66-79.33,32.59-120.26-2.48-16.72-10.7-32.18-18.66-47.14-6.63-12.47-13.49-25.36-17.18-39.14-4.04-15.08-7.02-30.2-9.91-44.82-5.73-29.06-11.15-56.51-24.01-80.84-14.39-27.22-36.09-46.64-68.29-61.12-17.65-7.93-35.33-13.46-52.53-16.46-14.35-2.5-28.73-3.76-42.61-3.76Z"/>
    </g>
  </g>
</svg>