<?xml version="1.0" encoding="UTF-8"?>
<svg id="Camada_2" data-name="Camada 2" xmlns="http://www.w3.org/2000/svg" viewBox="0 0 217.88 127.95">
  <defs>
    <style>
      .cls-1 {
        fill: #c69c6d;
      }

      .cls-2 {
        fill: #8aa47f;
      }
    </style>
  </defs>
  <g id="Camada_2-2" data-name="Camada 2">
    <g>
      <path class="cls-2" d="M35.52,29.85c-2.17,9.33-2.96,19-6.32,27.97-5.68,15.22-22.39,26.25-22.38,42.49,0,15.89,17.53,24.54,33.23,27.06,24.07,3.86,37.74-12.69,82.14-19.74,17.97-2.85,43.37,12.79,72.81,5.71,23.74-5.71,24.72-26.23,21.62-41.07-5.17-24.79-28.63-44.53-53.95-45.36-11.03-.36-22.21,2.47-33.02.2-11.99-2.52-19.29-7.01-29.41-11.84C90.49,10.62,42.55-.38,35.52,29.85Z"/>
      <path class="cls-1" d="M180.28,125.17c-14.65,0-27.81-4.84-39.62-9.17-9.59-3.52-17.86-6.56-25.04-6.33-20.49.67-34.71,4.29-46.13,7.19-13.28,3.38-23.77,6.05-36.83,2.2C17.07,114.46-.84,103.02.03,85.92c.52-10.26,7.07-17.78,13.41-25.04,4.22-4.84,8.58-9.85,11.11-15.61,2.41-5.5,3.82-11.61,5.19-17.51.75-3.22,1.52-6.56,2.45-9.79l1.44.41-1.44-.41c2.21-7.68,7.02-12.98,14.3-15.75,9.76-3.72,22-2.06,30.55-.02,9.44,2.25,18.38,5.96,22.34,8.46,1.95,1.23,3.79,2.44,5.58,3.61,7.2,4.71,13.41,8.78,22.67,11.99,6.31,2.19,12.77,2.5,19.62,2.84,4.23.21,8.59.42,12.89,1.12,25.91,4.22,48.44,27.46,52.41,54.06,1.34,9,1.52,21.59-5.29,30.47-4.34,5.66-10.93,9.03-19.59,10.03-2.5.29-4.95.42-7.37.42ZM116.41,106.65c7.52,0,15.78,3.04,25.29,6.53,13.44,4.94,28.67,10.54,45.61,8.59,7.82-.9,13.73-3.88,17.55-8.87,6.17-8.04,5.96-19.77,4.7-28.2-3.73-24.95-25.65-47.59-49.92-51.54-4.13-.67-8.41-.88-12.55-1.09-6.75-.33-13.74-.67-20.46-3-9.6-3.33-15.96-7.49-23.33-12.31-1.78-1.16-3.6-2.36-5.54-3.58-5.71-3.61-32.77-14.81-50.22-8.17-6.35,2.42-10.55,7.05-12.49,13.78-.91,3.16-1.67,6.45-2.41,9.64-1.4,6.04-2.84,12.28-5.36,18.04-2.71,6.19-7.22,11.37-11.59,16.38-6.28,7.2-12.21,14-12.67,23.22-.78,15.36,15.94,25.82,30.48,30.11,12.26,3.62,21.9,1.17,35.24-2.23,11.56-2.94,25.95-6.61,46.77-7.29.29,0,.59-.01.89-.01Z"/>
    </g>
  </g>
</svg>