<?xml version="1.0" encoding="UTF-8"?>
<svg id="Camada_2" data-name="Camada 2" xmlns="http://www.w3.org/2000/svg" viewBox="0 0 377.59 211.42">
  <defs>
    <style>
      .cls-1 {
        fill: #e1c0ff;
      }
    </style>
  </defs>
  <g id="Camada_1-2" data-name="Camada 1">
    <g>
      <path class="cls-1" d="M0,173.14v-.39s31.92-26.17,31.92-26.17l6.74-6.39,6.44-6.25c5.13-4.99,10.41-9.53,16.55-13.33,3.72-2.3,7.56-3.84,11.54-5.82l40.24-19.98c1.21-.6,3-.45,3.83.07.96.6,1.38,2.01,1.25,3.24-1.15,10.78-14.62,17.71-24.22,22.18-5.22,2.43-6.08,6.8-4.16,7.8,6.12,3.19,12.56,4.77,19.41,5.93,13.44,2.28,26.75,2.98,40.36,2.8l44.17-17.05c1.04-.4,2.81.36,3.42,1.11.63.77.89,1.96.95,3.2-2.67,3.08-5.35,5.57-8.71,7.86-3.69,5.63-8.16,10.51-13.4,14.77l-4.91,3.99c-2.7,8.58-12.07,15.99-20.56,18.22l-30.02,7.88c-.73.19-1.55,1.39-1.47,2s1.07,1.76,1.74,1.86l17.95,2.53,8.66.71c3.97.33,10.71,1.23,11.37,3,.76,2.05-4.19,3.96-7.77,3.94l-28.07-.11-35.96-2.05c-11.33-.65-21.95,2.37-32.23,6.64-9.56,4.26-18.24,9.26-26.27,15.91l-1.01.19c-.22.04-.32-.57-.18-.74l.48-.61c6.36-5.29,13.11-9.41,20.56-13.2,12.22-6.27,25.54-10.07,39.4-9.61l22,1.49c13.69.93,26.99,1.18,40.65.68,3.91-.14,7.43-1.47,6.6-2.11l-.93-.72c-6.3-1.09-12.46-1.76-18.9-2.07l-16.77-2.57c-1.54-.24-2.68-1.79-2.89-3.22-.16-1.08.95-3.04,2.4-3.42l29.35-7.72c8.39-2.21,15.86-7.53,19.64-15.53-4.24,2.66-8.09,4.74-12.77,6.03l-40.05,11.03-.42-1.25,40.65-11.31c2.87-.8,5.57-1.85,8.03-3.42,7.9-5.03,15.17-10.64,21.1-18.7l-19.74,11.31c-8.11,4.65-16.23,8.38-25.57,9.9l-28.73,3.48c-.14-.11-.64-.71-.5-.84l.64-.64,23.25-2.74c8.99-1.06,17.47-2.98,25.4-7.62l26.75-15.69c3.28-1.93,5.9-4.47,8.7-6.96.74-.66.98-2.09.54-2.65-.59-.76-1.48-1.09-2.52-.99l-44.45,17.16c-12.68.33-24.93-.47-37.47-2.29-7.69-1.42-15.03-3.02-22.03-6.24-1.91-.88-3.06-3.01-2.37-4.84,1.36-3.63,4.45-5.3,7.75-6.76,5.87-2.59,11.27-5.8,15.98-10.06,5.21-4.72,6.49-11.52,4.64-12.09-.47-.15-1.68-.13-2.21.13l-46.55,22.97c-7.64,3.77-13.99,8.66-20.04,14.55l-11.97,11.66L2.07,173.12c-.63.53-1.58.51-2.07.02Z"/>
      <path class="cls-1" d="M280.54,86.36c17.07-.29,33.06-4.93,47.5-13.37,5.55-3.24,9.83-7.33,14.84-11.36,10.61-8.53,22.19-15.51,33.86-22.14l.82.71c.11.1-.25.42-.41.58l-23.15,14.31c-6.13,4.12-11.42,8.57-17.04,13.32-7.05,5.97-15.29,9.9-23.85,13.23-10.83,4.22-21.67,5.8-33.25,6.27-12.68.51-24.58,4.94-35.65,10.75-1.91,1-3.75,1.57-5.8,1.39-2.23-.2-3.75-2.17-3.14-4.35,3.46-12.45,15.34-17.14,27.49-18.85l10.34-5-43.77-3.28-4.97,1.8c-4.2,9.34-9.44,18.27-19.17,21.88-1.42.53-3.53.3-4.3-.96-1.32-2.15-.35-4.22.7-6.04l5.18-8.98c-7,1.88-13.09,3.66-19.85,4.92-1.96.37-4.6.29-5.9-1.35-1-1.25.15-3.61,1.62-4.43l34.19-19.15,9.38-10.49c2.66-2.97,5.62-5.18,9.28-6.7,5.27-6.99,11.76-12.65,19.81-16.03l11.3-4.75c-4.46-2-9.42-3.09-14.14-1.85-5.78,1.52-11.23,3.3-17.24,3.92-3.63.38-7.04-.92-6.96-2.9.03-.66.86-1.9,1.6-2.25l26.22-12.05c3.48-1.6,6.49-1.78,10.23-.63,22.8,7,48.62,10,71.88,3.89,5.7-1.5,10.9-3.6,15.93-6.41l.76.6c.2.16-.35.73-.58.93-6.23,3.45-12.7,5.68-19.69,7.25-22.35,4.76-46.63,1.85-68.35-4.9-3.39-1.06-5.92-1.3-9.27.23l-26.21,12.03c-.41.19-1.01.87-.95,1.23.28,1.68,5.12,1.87,8.29,1.07l14.5-3.63c5.61-1.4,11.93.18,16.76,3.51l-15.99,7c-6.25,2.74-11.21,7.38-15.5,13.04l20.88-5,.85.52c.23.14-.38.69-.66.85l-22.03,5.25c-3.28.98-6.18,2.58-8.4,5.12l-7.37,8.4,4.92-2.45c1.85-.92,3.98-1.45,6.15-1.57h23.21s.37.8.37.8c.11.22-.54.54-.85.66l-23.58-.02c-2.66.26-4.76,1.33-7.07,2.64l-39.03,21.98c-1.29.73-2.88,1.83-3.22,3.21.92,1.38,3.11,1.23,4.69.93,6.84-1.29,13.26-3.07,19.93-4.98,7.65-2.19,14.72-4.48,22.23-7.54l57.3,4.21c.29.25.89.72.75.9-.19.24-.84.53-1.22.5l-9.43-.66-13.02,6.13c-5.48.72-10.67,2.11-15.51,4.65-5.63,2.78-9.44,7.46-11.11,13.56l.38,1.65c.1.43,1.21.78,1.71.77,2.26-.02,4.32-1.14,6.36-2.2,9.91-5.18,23.94-10.11,35.42-10.3ZM202.5,91.01c2.96.15,5.48-1.18,7.61-2.84,5.57-4.36,9.45-10.39,12.26-16.94l-13.22,4.23-7.03,11.94c-.46.79-.26,2.88.38,3.61Z"/>
      <path class="cls-1" d="M151.32,110.57l-1.29.17-1.35-9.54-8.89-1.08c-.3-.04-.92-.73-.75-.89s.76-.58,1.05-.62l8.55-1.1,1.16-8.25.23-1.02c.06-.26.86-.21,1.22-.15l1.32,9.36,9.56,1.35-.2,1.11-9.44,1.39-1.19,9.3ZM150.61,103.19c.27-1.36.37-2.95,1.03-3.11l2.69-.62-3-.77-.7-3.07-.82,3.04-3.21.83,3.19.54.84,3.16Z"/>
      <path class="cls-1" d="M273.29,128.06c-.05.35-.52,1.31-.78,1.15s-.77-.77-.82-1.09l-1.14-8.38-9.64-1.32c.03-.91.81-1.35,1.6-1.45l8-.97,1.2-8.66c.04-.27.53-.85.8-.9s.73.63.77.99l1.12,8.62,9.55,1.26-.22,1.05-9.33,1.3-1.12,8.4ZM273.28,118.52l3.05-.74-3.03-.81-.84-3.23c-.22,1.34-.22,3.05-.89,3.25l-2.85.83,3.1.72.71,3.38.75-3.4Z"/>
      <path class="cls-1" d="M174.18,39.12c-2.14-2.66-2-8.57-6.2-9.97l-5.56-1.84c-.28-.09-.84-.96-.59-1.04l1.16-.38c2.41-.79,5.11-1.28,6.98-3.09s2.39-4.55,3.14-6.97l.37-1.2c.1-.33,1.22.35,1.32.7,1.79,6.42,2.55,8.88,10.02,10.36.41.08,1.16.58,1.39.77,1.2,1.05-5.4,1.23-8.33,4.22-2.19,2.24-2.13,5.16-3.7,8.44ZM173.88,35.16c1.2-4.69,4.06-7.36,8.47-8.49-4.54-1.44-7.3-3.81-8.38-8.47-1.2,4.46-3.95,6.96-8.3,8.54,4.79,1.34,7.23,4.11,8.21,8.42Z"/>
      <path class="cls-1" d="M233.97,152.62c-3.75,1.42-4.07,8.91-4.88,8.31-1.73-1.3-1.24-5.01-3.77-7.44-2.1-2.02-5.39-1.68-6.99-3.29-.61-.62,5.12-1.12,7.43-3.71,2.14-2.41,1.75-6.3,3.33-6.83,1.04-.35.99,6.69,5.13,8.32l5.87,2.32-6.12,2.32ZM235.71,150.17c-3.65-1.36-5.64-3.06-6.62-6.75-1.01,3.57-3.1,5.67-6.84,6.85,3.91,1.07,5.72,3.36,6.86,6.73.92-3.7,3.04-5.29,6.6-6.83Z"/>
      <path class="cls-1" d="M129.96,62.77c0,1.85-1.5,3.35-3.35,3.35s-3.35-1.5-3.35-3.35,1.5-3.35,3.35-3.35,3.35,1.5,3.35,3.35ZM128.56,62.79c0-1.08-.87-1.95-1.95-1.95s-1.95.87-1.95,1.95.87,1.95,1.95,1.95,1.95-.87,1.95-1.95Z"/>
      <path class="cls-1" d="M206.93,34.38c0,1.81-1.47,3.28-3.28,3.28s-3.28-1.47-3.28-3.28,1.47-3.28,3.28-3.28,3.28,1.47,3.28,3.28ZM205.52,34.37c0-1.03-.83-1.86-1.86-1.86s-1.86.83-1.86,1.86.83,1.86,1.86,1.86,1.86-.83,1.86-1.86Z"/>
      <path class="cls-1" d="M194.38,159.06c0,1.76-1.43,3.19-3.19,3.19s-3.19-1.43-3.19-3.19,1.43-3.19,3.19-3.19,3.19,1.43,3.19,3.19ZM192.99,159.11c0-.98-.8-1.78-1.78-1.78s-1.78.8-1.78,1.78.8,1.78,1.78,1.78,1.78-.8,1.78-1.78Z"/>
      <path class="cls-1" d="M251.73,112.39c0,1.64-1.33,2.96-2.96,2.96s-2.96-1.33-2.96-2.96,1.33-2.96,2.96-2.96,2.96,1.33,2.96,2.96ZM250.35,112.36c0-.86-.7-1.55-1.55-1.55s-1.55.7-1.55,1.55.7,1.55,1.55,1.55,1.55-.7,1.55-1.55Z"/>
    </g>
  </g>
</svg>