<?xml version="1.0" encoding="UTF-8"?>
<svg id="Camada_2" data-name="Camada 2" xmlns="http://www.w3.org/2000/svg" viewBox="0 0 388.02 217.61">
  <defs>
    <style>
      .cls-1 {
        stroke-linejoin: round;
      }

      .cls-1, .cls-2 {
        fill: none;
        stroke: #fff;
        stroke-linecap: square;
        stroke-width: .5px;
      }

      .cls-3 {
        fill: #fff;
      }

      .cls-2 {
        fill-rule: evenodd;
        stroke-miterlimit: 22.93;
      }
    </style>
  </defs>
  <g id="Camada_1-2" data-name="Camada 1">
    <g>
      <g>
        <path class="cls-2" d="M293.77,74.25c-6.57-.46-13.12-1.07-19.68-1.68M215.1,76.8c-1.99.5-6.59,1.92-8.58,2.42-4.76,1.19-9.55,2.43-14.32,3.58-2.05.5-4.43.35-5.56-1.71-.49-.9,1.22-2.16,1.82-2.66,3.9-3.23,11.04-6.93,15.59-9.36,6.75-3.59,17.58-8.54,23.14-13.51M262.04,51.64c-8.5,0-21.21-1.46-28.74,1.62-.64.26-5.35,2.28-5.81,1.96,1.14-3.54,6.74-8.87,9.5-11.26,2.46-2.12,5.08-3.98,7.22-4.5M229.63,72.75c-2.14,5.88-7.94,14.87-13.18,18.35-1.68,1.12-6.08,4.13-8.09,3.3-1.92-.79-1.87-3.52-1.09-5.13.53-1.08,1.57-2.42,2.25-3.49,1.38-2.22,2.79-4.58,3.09-7.22.09-.83,1.69-1.56,2.58-1.79,3.87-.97,6.99-2.09,10.73-3.37,9.21-3.14,10.21-3.65,19.36-3.01,9.61.67,19.19,1.33,28.82,2.16,1.4.12,5.65.08,6.44,1.04,2.61,3.2-20.67,8.67-22.92,9.46-6.06,2.18-14.97,9.78-14.72,16.81.16,4.53,7.02,1.49,8.98.57,1.64-.73,3.35-1.95,5.05-2.81,8.37-4.23,19.24-6.71,28.62-7.47,13.65-1.11,27.29-2.28,39.97-8.19,8.52-3.98,16.12-8.17,23.47-14.24l4.35-3.91c11.26-9.19,28.44-17.94,34.34-22.6M265.95,35.13c-2.99.27-7.73,1.71-10.74,2.5-1.98.52-8.09,1.03-10.92,1.77,2.28-5.22,9.28-10.36,14.18-13.08,1.03-.57,2.07-1.1,3.13-1.63,2.9-1.35,11.11-3.88,12.61-6.09-2.59-3.56-12.86-3.42-16.8-2.31-3.99,1.13-8.3,2.52-12.33,3.37-2.68.56-6.4,1.07-8.58-.8-.79-.68-.79-1.8.07-2.47,3.49-2.68,11.53-5.6,15.86-7.39,4.23-1.76,13.4-7.55,17.43-6.91,1.89.32,4.46,1.1,6.35,1.6,8.26,2.19,15.81,4.51,24.38,5.41,4.25.44,8.42.85,12.68,1.14,3.09.21,5.47.74,8.68.67,4.54-.1,9.82-.72,14.36-1.28,7.52-.94,22.36-4.88,28.32-9.27"/>
        <path class="cls-2" d="M174.01,156.04c-.08,1.04-.16,2.4-.62,3.34-2.67,5.55-9.17,9.52-14.55,11.87-9.56,4.19-21.84,7.24-30.75,9.22-7.25,1.61-10.14,5.18.06,6.79l10.43,1.74c6.58,1.11,14.31.59,20.75,2.43,4.99,1.43,2.57,3.11-1.03,4.07-2.43.65-5.25.68-7.37.8-9.78.52-19.77.26-29.85-.31-13.77-.78-26.2-3.92-39.87-2.21-25.15,3.98-32.49,9.59-53.03,23.47M191.18,138.15l10-8.26c1.62-1.65,1.87-3.1,1.46-4.17-1.29-3.38-5.32-1.02-7.67-.16-9.81,3.62-19.52,7.79-29.35,11.54-10.19,3.9-11.37,4.55-22.14,4.34-9.74-.11-19.72-.79-30.1-2.43-4.18-.54-18.4-4.14-21.3-6.52-5.16-5.73,4.5-9.43,8.26-11.3,5.15-2.57,12.02-6.41,16.34-11.53,4.78-5.68,7.35-13.98-3.79-10.03-4.96,1.76-10.64,5.28-12.56,6.79-4.3,2.73-18.26,8.81-22.6,10.98-9.22,4.61-17,8.32-25.21,15.1-3.68,3.04-16.38,16.04-16.95,16.52-11.67,9.72-23.42,19.56-35.21,29.12M120.33,172.92c4.75-.37,20.74-5.33,26.08-6.96,8.91-2.71,15.27-3.41,22.97-7.68,4.08-2.26,6.79-4.07,10.5-7.1,1.78-1.45,7.26-6.71,9.74-9.47,2.59-2.89,2.18-4.97-2.21-2.36-6.96,4.14-13.93,8.16-21,12.14-4.33,2.44-7.39,3.73-10.24,4.65-13.68,4.43-26.86,5.22-41.05,6.77"/>
      </g>
      <path class="cls-3" d="M178.87,14.76l.03,1.15c.18,6.26,5.21,11.3,11.48,11.48l1.15.03-1.15.03c-6.26.18-11.3,5.21-11.48,11.48l-.03,1.15-.03-1.15c-.18-6.26-5.21-11.3-11.48-11.48l-1.15-.03,1.15-.03c6.26-.18,11.3-5.21,11.48-11.48l.03-1.15M178.87,14.26h0c-.27,0-.49.22-.5.49l-.03,1.15c-.17,6-5,10.82-10.99,10.99l-1.15.03c-.27,0-.49.23-.49.5s.22.49.49.5l1.15.03c6,.17,10.82,5,10.99,10.99l.03,1.15c0,.27.23.49.5.49s.49-.22.5-.49l.03-1.15c.17-6,5-10.82,10.99-10.99l1.15-.03c.27,0,.49-.23.49-.5s-.22-.49-.49-.5l-1.15-.03c-6-.17-10.82-5-10.99-10.99l-.03-1.15c0-.27-.23-.49-.5-.49h0Z"/>
      <path class="cls-3" d="M235.81,143.75l.03,1.08c.17,5.83,4.86,10.52,10.69,10.69l1.08.03-1.08.03c-5.83.17-10.52,4.86-10.69,10.69l-.03,1.08-.03-1.08c-.17-5.83-4.86-10.52-10.69-10.69l-1.08-.03,1.08-.03c5.83-.17,10.52-4.86,10.69-10.69l.03-1.08M235.81,143.25h0c-.27,0-.49.22-.5.49l-.03,1.08c-.16,5.56-4.64,10.04-10.2,10.2l-1.08.03c-.27,0-.49.23-.49.5s.22.49.49.5l1.08.03c5.56.16,10.04,4.64,10.2,10.2l.03,1.08c0,.27.23.49.5.49s.49-.22.5-.49l.03-1.08c.16-5.56,4.64-10.04,10.2-10.2l1.08-.03c.27,0,.49-.23.49-.5s-.22-.49-.49-.5l-1.08-.03c-5.56-.16-10.04-4.64-10.2-10.2l-.03-1.08c0-.27-.23-.49-.5-.49h0Z"/>
      <path class="cls-3" d="M154.59,90.67l1.11,11.01,11.01,1.11-11.01,1.11-1.11,11.01-1.11-11.01-11.01-1.11,11.01-1.11,1.11-11.01M154.59,90.17c-.26,0-.47.19-.5.45l-1.07,10.6-10.6,1.07c-.26.03-.45.24-.45.5s.19.47.45.5l10.6,1.07,1.07,10.6c.03.26.24.45.5.45s.47-.19.5-.45l1.07-10.6,10.6-1.07c.26-.03.45-.24.45-.5s-.19-.47-.45-.5l-10.6-1.07-1.07-10.6c-.03-.26-.24-.45-.5-.45h0Z"/>
      <path class="cls-3" d="M280.83,109.69l1.11,11.01,11.01,1.11-11.01,1.11-1.11,11.01-1.11-11.01-11.01-1.11,11.01-1.11,1.11-11.01M280.83,109.19c-.26,0-.47.19-.5.45l-1.07,10.6-10.6,1.07c-.26.03-.45.24-.45.5s.19.47.45.5l10.6,1.07,1.07,10.6c.03.26.24.45.5.45s.47-.19.5-.45l1.07-10.6,10.6-1.07c.26-.03.45-.24.45-.5s-.19-.47-.45-.5l-10.6-1.07-1.07-10.6c-.03-.26-.24-.45-.5-.45h0Z"/>
      <circle class="cls-1" cx="129.75" cy="64.9" r="2.82"/>
      <circle class="cls-1" cx="209.48" cy="35.36" r="2.82"/>
      <circle class="cls-1" cx="256.25" cy="116.2" r="2.58"/>
      <circle class="cls-1" cx="196.51" cy="164.73" r="2.58"/>
    </g>
  </g>
</svg>