<?xml version="1.0" encoding="UTF-8"?>
<svg id="Camada_2" data-name="Camada 2" xmlns="http://www.w3.org/2000/svg" viewBox="0 0 674.35 378.98">
  <defs>
    <style>
      .cls-1 {
        fill: #c69c6d;
      }
    </style>
  </defs>
  <g id="Camada_1-2" data-name="Camada 1">
    <g>
      <path class="cls-1" d="M674.03,71.4c-.51-.65-1.46-.76-2.11-.25-5.02,3.96-14.89,9.7-26.13,16.54-11.16,6.79-23.57,14.61-33.41,22.65-.02.02-.04.03-.05.05l-7.51,6.75c-12.6,10.4-25.64,17.6-40.34,24.47-21.7,10.11-45.07,12.13-68.77,14.06h0c-16.39,1.33-35.44,5.66-50.16,13.11h0c-1.53.78-3.06,1.71-4.51,2.57-1.47.88-2.85,1.68-4.18,2.27,0,0-.02,0-.03.01-1.7.8-5.35,2.43-8.55,2.92-1.62.25-2.87.17-3.66-.21-.36-.18-.63-.41-.83-.74-.2-.34-.37-.86-.4-1.65h0c-.19-5.48,3.21-11.44,8.23-16.63,4.98-5.15,11.28-9.25,16.28-11.05.92-.32,4.06-1.14,8.38-2.33,4.27-1.17,9.56-2.66,14.6-4.29,5.02-1.62,9.86-3.4,13.19-5.16,1.64-.86,3.07-1.8,3.94-2.82.44-.52.84-1.17.94-1.94.01-.12,0-.23,0-.34,6.99.63,13.98,1.22,20.99,1.71.83.06,1.54-.57,1.6-1.39.06-.83-.57-1.54-1.39-1.6-8.2-.57-16.38-1.28-24.56-2.03-.03,0-.06-.02-.09-.03-1.03-.26-2.24-.42-3.43-.53-1.2-.11-2.42-.18-3.47-.22-1.08-.05-1.95-.08-2.52-.13h0c-16.71-1.44-33.32-2.58-49.98-3.75h0c-7.94-.56-12.5-.63-17.1.17-4.56.79-9.13,2.42-17.05,5.12h0c-6.51,2.23-11.85,4.14-18.48,5.81h-.01c-.09.03-.19.06-.29.09-1.77.45-4.58,1.27-7.35,2.08-2.87.84-5.69,1.66-7.38,2.08h0c-8.27,2.07-16.55,4.21-24.81,6.2h0c-3.36.82-6.46.39-7.92-2.16,0-.02,0-.03.02-.05.08-.2.27-.49.6-.86.67-.74,1.53-1.4,2.13-1.89h0c6.61-5.48,18.81-11.8,26.77-16.06,5.72-3.04,13.53-6.84,20.84-10.82,7.37-4.01,14.61-8.37,19.56-12.81.06-.05.09-.12.13-.18.06,0,.14,0,.2-.01.4-.06.87-.17,1.34-.31.95-.27,2.13-.69,3.28-1.13,2.3-.87,4.67-1.88,5.19-2.09h0c6.24-2.55,14.75-3.26,23.72-3.3,4.46-.02,8.97.13,13.32.29,4.33.15,8.5.31,12.22.31.83,0,1.5-.67,1.5-1.5s-.67-1.5-1.5-1.5c-3.65,0-7.76-.16-12.11-.31-4.34-.15-8.91-.3-13.43-.29-9,.03-18.02.73-24.84,3.52h0s0,0,0,0c0,0,0,0,0,0h0c-.59.24-2.86,1.21-5.12,2.06-.62.23-1.22.45-1.77.64,1.3-2.26,3.34-4.84,5.68-7.41,3.22-3.54,6.79-6.84,9.16-8.89,4.27-3.68,8.57-6.67,11.89-7.48.16-.04.3-.11.43-.19,2.36-.59,5.99-1.1,9.59-1.58,3.62-.48,7.26-.95,9.09-1.43h0c5.35-1.4,13.35-3.84,18.37-4.29.83-.07,1.43-.8,1.36-1.63s-.8-1.43-1.63-1.36c-5.35.48-13.78,3.04-18.86,4.38h0c-1.6.42-4.97.85-8.73,1.36-2.35.31-4.82.66-6.98,1.04,2.07-3.33,5.17-6.64,8.72-9.7,4.5-3.87,9.57-7.22,13.74-9.54h0c1.75-.97,3.52-1.87,5.34-2.78,1.2-.56,2.97-1.25,5.06-2.05,2.07-.8,4.43-1.69,6.7-2.64,2.27-.94,4.51-1.95,6.37-2.97,1.79-.99,3.45-2.13,4.32-3.41.36-.52.34-1.21-.03-1.72-1.39-1.91-3.68-3.18-6.22-4.04-2.56-.87-5.55-1.37-8.56-1.61-5.99-.48-12.33.06-15.96,1.08h0c-6.99,1.98-14.35,4.36-21.27,5.82-2.29.48-4.93.91-7.42.85-2.5-.06-4.65-.61-6.17-1.91-.37-.32-.5-.68-.49-.98,0-.3.14-.66.55-.98,2.86-2.19,7.69-4.56,12.87-6.79,5.18-2.23,10.45-4.24,14.27-5.82h0c1.9-.79,4.32-2.02,6.94-3.37,2.64-1.36,5.51-2.85,8.36-4.21,2.86-1.37,5.66-2.58,8.15-3.38,2.54-.82,4.56-1.14,5.94-.92,3.19.54,7.49,1.85,10.86,2.74h0c14.25,3.78,27.48,7.84,42.49,9.42h0c7.37.76,14.62,1.48,22.03,1.98h0c2.64.18,4.94.49,7.38.76,2.42.26,4.92.47,7.8.41h0c7.96-.18,17.18-1.26,25.04-2.23h0c6.62-.83,16.4-2.96,25.81-5.85,9.37-2.87,18.6-6.54,23.98-10.5.67-.49.81-1.43.32-2.1-.49-.67-1.43-.81-2.1-.32-4.95,3.64-13.75,7.19-23.08,10.05-9.29,2.84-18.89,4.94-25.3,5.74h0c-7.88.97-16.96,2.04-24.74,2.21h0c-2.69.06-5.04-.13-7.41-.39-2.35-.25-4.79-.58-7.5-.77h0c-7.36-.5-14.56-1.21-21.93-1.97-14.71-1.54-27.64-5.52-42.03-9.34h0c-3.18-.84-7.77-2.23-11.14-2.8,0,0-.01,0-.02,0-2.11-.34-4.7.18-7.33,1.03-2.68.86-5.62,2.14-8.53,3.53-2.91,1.39-5.82,2.91-8.44,4.25-2.64,1.36-4.95,2.53-6.72,3.26-3.68,1.52-9.13,3.6-14.31,5.83-5.17,2.23-10.33,4.72-13.52,7.17l.91,1.19-.91-1.19h0c-1.08.85-1.69,2.04-1.71,3.29-.02,1.25.53,2.45,1.53,3.31h0c2.26,1.94,5.23,2.57,8.05,2.64,2.84.07,5.75-.43,8.1-.92h0c7.05-1.49,14.63-3.93,21.47-5.87h0c3.2-.9,9.17-1.44,14.91-.98,2.86.23,5.59.7,7.84,1.46,1.68.57,3,1.27,3.92,2.07-.58.48-1.4,1.03-2.49,1.63-1.7.95-3.82,1.9-6.06,2.83-2.23.92-4.54,1.8-6.63,2.61-2.07.79-3.95,1.53-5.27,2.14-.01,0-.03.01-.04.02-1.84.92-3.67,1.85-5.48,2.85h0c-4.32,2.4-9.56,5.86-14.24,9.89-4.47,3.84-8.52,8.3-10.7,12.92-3.96,1.16-8.5,4.46-12.56,7.96h0c-2.42,2.1-6.09,5.49-9.41,9.14-3.22,3.54-6.3,7.53-7.44,10.91-.04.03-.09.04-.13.08-4.68,4.18-11.65,8.41-19,12.41-7.41,4.03-14.84,7.63-20.82,10.81h0c-7.81,4.17-20.36,10.67-27.27,16.39h0c-.45.37-1.58,1.24-2.44,2.2-.43.48-.89,1.08-1.16,1.76-.28.7-.4,1.63.09,2.53h0c2.48,4.53,7.6,4.61,11.3,3.71h0s0,0,0,0c0,0,0,0,0,0h0c8.27-2,16.6-4.15,24.83-6.21h0c1.76-.44,4.65-1.28,7.49-2.11.39-.11.77-.23,1.16-.34-.55,4.06-2.73,7.78-5.08,11.56-.57.9-1.28,1.89-2.02,2.98-.71,1.05-1.45,2.17-1.96,3.21h0c-.8,1.65-1.21,3.82-.95,5.84.27,2.03,1.29,4.15,3.61,5.1h0s0,0,0,0,0,0,0,0h0c1.32.54,2.83.4,4.19.05,1.4-.36,2.88-.99,4.28-1.69,2.8-1.42,5.52-3.26,6.95-4.22h0c4.77-3.17,9.68-8.75,13.84-14.74,4.17-6,7.68-12.56,9.58-17.81.06-.16.08-.33.08-.49,3.7-1.22,6.43-2.02,9.15-2.49,4.22-.73,8.46-.69,16.38-.13h0c16.55,1.15,33.03,2.29,49.6,3.71.1.03.2.05.3.06,3.08.29,6.16.57,9.25.85.27.08.5.16.66.23.15.07.21.12.24.14-.03.06-.08.16-.22.32-.48.57-1.49,1.29-3.06,2.12-3.09,1.63-7.72,3.34-12.72,4.96-4.97,1.61-10.21,3.09-14.47,4.25-4.19,1.15-7.55,2.03-8.59,2.39h0s-.01,0-.01,0c-5.5,1.98-12.18,6.36-17.43,11.78-5.22,5.39-9.32,12.11-9.08,18.82h0c.04,1.17.3,2.21.82,3.07.52.88,1.25,1.5,2.1,1.91,1.62.79,3.62.76,5.43.48,3.67-.57,7.66-2.38,9.36-3.17h0c1.5-.67,3.02-1.55,4.47-2.42,1.49-.89,2.91-1.75,4.32-2.47h0c14.29-7.22,32.93-11.49,49.05-12.79h0c23.62-1.92,47.53-3.96,69.79-14.33h0c14.83-6.93,28.12-14.25,41-24.89.02-.01.03-.03.05-.04l7.51-6.75c9.67-7.89,21.9-15.61,33.05-22.39,11.08-6.74,21.22-12.63,26.43-16.75.65-.51.76-1.46.25-2.11ZM388.26,143.61c-4.07,5.86-8.73,11.09-13.04,13.95h0c-1.47.98-4.03,2.72-6.64,4.04-1.31.66-2.57,1.18-3.67,1.46-1.14.29-1.89.26-2.31.08h0c-1-.41-1.6-1.35-1.78-2.72-.18-1.39.12-2.98.67-4.13.41-.83,1.03-1.8,1.74-2.84.68-1.01,1.47-2.1,2.07-3.06,0,0,0,0,0-.01,2.37-3.81,5-8.16,5.57-13.11,0,0,.02-.07.16-.21.18-.19.46-.41.85-.65.67-.4,1.46-.72,2.08-.91.03,0,.07-.02.11-.03.03,0,.05-.02.08-.03.03,0,.06-.02.09-.03h0c6.78-1.7,12.25-3.67,18.71-5.87h0c1.39-.48,2.67-.91,3.86-1.32-1.9,4.64-4.95,10.2-8.55,15.38Z"/>
      <path class="cls-1" d="M353.52,218.29h0s0,0,0,0c0,0,0,0,0,0h0c-.68-1.79-1.81-2.98-3.29-3.58-1.41-.57-2.95-.52-4.35-.25-1.41.27-2.85.78-4.13,1.29-1.36.54-2.43,1.03-3.44,1.39h0c-16.96,6.26-33.98,13.56-50.89,20.01h0c-8.89,3.4-13.68,5.32-18.59,6.37-4.87,1.04-9.9,1.24-19.22,1.06l-.03,1.5.03-1.5h-.01c-16.82-.19-34.05-1.36-51.96-4.19-.01,0-.03,0-.04,0-3.51-.45-11.4-2.22-19.07-4.41-3.83-1.09-7.56-2.27-10.64-3.43-3.07-1.16-5.29-2.22-6.36-3.07-1.94-2.2-2.31-3.97-2.02-5.4.31-1.56,1.47-3.12,3.31-4.65,3.7-3.1,9.24-5.39,12.66-7.09h0c8.93-4.46,21.09-11.23,28.8-20.36h0c2.14-2.54,4.04-5.39,5.38-8.14,1.32-2.71,2.19-5.5,2.03-7.88-.08-1.21-.43-2.39-1.2-3.36-.78-.99-1.88-1.64-3.23-1.98-2.61-.65-6.31-.14-11.2,1.6h0c-8.71,3.09-18.61,9.21-22.12,11.94-3.64,2.3-11.42,6.06-19.35,9.76-7.88,3.68-15.86,7.28-19.65,9.17-15.95,7.98-29.6,14.48-43.98,26.36h0c-3.26,2.69-10.41,9.7-16.81,16.08-3.21,3.2-6.26,6.26-8.56,8.57-1.15,1.16-2.12,2.12-2.82,2.83-.35.35-.64.64-.85.84-.11.1-.19.19-.25.25-.07.07-.09.09-.09.08h0c-20.23,16.85-40.58,33.9-61.01,50.46-.64.52-.74,1.47-.22,2.11.52.64,1.47.74,2.11.22,20.45-16.58,40.82-33.64,61.05-50.49l-.96-1.15.96,1.15h0c.19-.16.7-.67,1.38-1.34.71-.71,1.68-1.68,2.83-2.84,2.3-2.31,5.34-5.37,8.55-8.57,6.45-6.42,13.49-13.31,16.61-15.89h0c14.08-11.62,27.4-17.98,43.41-25.99,3.74-1.87,11.62-5.42,19.58-9.13,7.89-3.68,15.9-7.54,19.73-9.97.04-.03.08-.06.12-.09,3.22-2.53,12.92-8.55,21.34-11.54h0c4.76-1.69,7.75-1.94,9.47-1.51.82.2,1.3.55,1.59.92.31.39.52.94.57,1.71.11,1.6-.49,3.82-1.73,6.36-1.22,2.5-2.98,5.14-4.98,7.52-7.27,8.62-18.92,15.16-27.84,19.61-3.1,1.54-9.19,4.08-13.25,7.48-2.05,1.71-3.81,3.82-4.32,6.36-.53,2.64.35,5.37,2.81,8.1.05.06.1.11.16.16,1.47,1.21,4.18,2.44,7.29,3.62,3.18,1.2,7,2.41,10.88,3.51,7.7,2.2,15.75,4.01,19.49,4.5,18.07,2.85,35.44,4.04,52.37,4.23h0c9.34.18,14.66,0,19.9-1.12,5.2-1.11,10.26-3.14,19.03-6.5h0c17.17-6.55,33.81-13.71,50.86-20h0c1.03-.38,2.35-.96,3.52-1.42,1.24-.49,2.46-.92,3.58-1.13,1.13-.21,2.02-.18,2.67.09.59.24,1.17.73,1.61,1.87h0c.43,1.12.36,3.02-2.16,5.6l-16.94,14c-.6-.1-1.23-.06-1.78.06-1.31.27-2.94.99-4.9,2.15h0c-12.05,7.17-24.12,14.13-36.37,21.03h0c-7.43,4.19-12.64,6.38-17.47,7.94h0c-23.53,7.62-46.16,8.97-70.85,11.67-.82.09-1.42.83-1.33,1.65s.83,1.42,1.65,1.33c24.5-2.68,47.55-4.06,71.45-11.8h0s0,0,0,0c0,0,0,0,0,0h0c5.05-1.63,10.44-3.91,18.02-8.18h0c12.26-6.9,24.36-13.88,36.43-21.06h0c1.85-1.1,3.15-1.62,3.98-1.79.13-.03.23-.04.32-.05-.04.16-.1.36-.23.63-.36.79-1.06,1.83-2.12,3.01h0c-4.26,4.74-13.7,13.8-16.71,16.26h0c-6.36,5.19-10.98,8.28-17.98,12.16h0c-13.16,7.3-23.81,8.41-39.52,13.19h0c-4.63,1.42-13.86,4.27-22.96,6.84-9.17,2.6-17.99,4.85-21.93,5.16-.83.06-1.44.79-1.38,1.61s.79,1.44,1.61,1.38c4.3-.33,13.45-2.7,22.51-5.27,9.13-2.59,18.39-5.45,23.01-6.86,15.17-4.62,26.58-5.93,40.1-13.44h0c2.04-1.13,3.88-2.2,5.64-3.28-.03.27-.05.55-.09.82-.14.96-.35,1.78-.65,2.39l1.35.66-1.35-.66h0c-4.38,9.11-15.2,15.81-24.47,19.86h0c-16.43,7.2-37.58,12.46-53.02,15.89h0c-3.22.72-6.02,1.66-8.14,2.76-1.06.55-1.98,1.15-2.7,1.82-.71.66-1.32,1.45-1.57,2.38-.27.99-.1,1.99.46,2.87.53.84,1.38,1.52,2.41,2.09,2.05,1.15,5.26,2.09,9.73,2.79h0s18.08,3.02,18.08,3.02h0s0,0,0,0h0c5.8.98,12.11,1.24,18.22,1.65,6.17.41,12.17.98,17.58,2.53,2.12.61,3.2,1.18,3.66,1.59.05.04.08.07.1.1-.18.24-.67.64-1.66,1.11-1.02.49-2.36.96-3.86,1.36h0c-4.02,1.07-8.68,1.12-12.47,1.34h0c-16.87.9-34.13.45-51.58-.54h0c-11.89-.67-23.12-2.36-34.55-3.53-11.37-1.16-22.81-1.8-34.83-.29-.02,0-.03,0-.05,0-21.89,3.46-36.12,7.65-49.37,14.04-13.2,6.36-25.4,14.89-43.15,26.89-.69.46-.87,1.4-.4,2.08.46.69,1.4.87,2.08.4,17.85-12.06,29.82-20.43,42.77-26.67,12.9-6.22,26.82-10.34,48.51-13.77,11.67-1.46,22.85-.85,34.13.3,11.24,1.15,22.71,2.86,34.69,3.54h0c17.5.99,34.88,1.44,51.9.54h0c3.56-.2,8.67-.26,13.08-1.44h0s0,0,0,0c0,0,0,0,0,0h0c1.61-.43,3.14-.95,4.39-1.55,1.18-.57,2.37-1.32,2.98-2.35.34-.57.53-1.27.37-2.03-.15-.73-.59-1.32-1.1-1.78-.99-.88-2.63-1.6-4.83-2.24h0c-5.75-1.64-12.03-2.22-18.2-2.64-6.23-.42-12.32-.67-17.93-1.61h0s-18.08-3.02-18.08-3.02l-.25,1.48.25-1.48h-.01c-4.36-.69-7.16-1.57-8.74-2.45-.79-.44-1.17-.83-1.34-1.09-.13-.21-.13-.34-.1-.47.05-.19.23-.52.71-.96.47-.43,1.15-.89,2.06-1.36,1.81-.94,4.34-1.81,7.41-2.49h0c15.45-3.43,36.86-8.75,53.57-16.07h0s0,0,0,0c0,0,0,0,0,0h0c9.37-4.1,21.08-11.16,25.96-21.29h0s0,0,0,0c0,0,0,0,0,0h0c.5-1.02.76-2.19.92-3.26.16-1.08.23-2.19.3-3.07,0-.07,0-.15,0-.22,3.13-2.07,6.13-4.31,9.62-7.16h0c3.16-2.57,12.71-11.75,17.05-16.57h0c1.18-1.32,2.08-2.61,2.61-3.77.26-.58.46-1.17.53-1.75.04-.3.04-.63-.02-.96l16.77-13.86s.08-.07.11-.11c3.06-3.11,3.85-6.23,2.86-8.81ZM331.07,241.89s.03.01,0,0h0Z"/>
      <path class="cls-1" d="M332.88,46.92l-1.99-.05c-10.07-.29-18.15-8.39-18.44-18.44h0l-.05-1.99c-.02-.81-.69-1.46-1.5-1.46s-1.48.65-1.5,1.46l-.05,1.99c-.29,10.07-8.39,18.15-18.44,18.44l-1.99.05c-.81.02-1.46.69-1.46,1.5s.65,1.48,1.46,1.5l1.99.05c10.07.29,18.15,8.39,18.44,18.44l.05,1.99c.02.81.69,1.46,1.5,1.46s1.48-.65,1.5-1.46l.05-1.99h0c.29-10.07,8.39-18.15,18.44-18.44l1.99-.05c.81-.02,1.46-.69,1.46-1.5s-.65-1.48-1.46-1.5ZM310.9,61.15c-2.23-5.85-6.87-10.49-12.72-12.72,5.85-2.23,10.49-6.87,12.72-12.72,2.23,5.85,6.87,10.49,12.72,12.72-5.85,2.23-10.49,6.87-12.72,12.72Z"/>
      <path class="cls-1" d="M430.09,269.03l-1.87-.05c-9.31-.27-16.8-7.76-17.07-17.07h0l-.05-1.87c-.02-.81-.69-1.46-1.5-1.46s-1.48.65-1.5,1.46l-.05,1.87h0c-.27,9.31-7.76,16.8-17.07,17.07l-1.87.05c-.81.02-1.46.69-1.46,1.5s.65,1.48,1.46,1.5l1.87.05c9.31.27,16.8,7.76,17.07,17.07h0l.05,1.87c.02.81.69,1.46,1.5,1.46s1.48-.65,1.5-1.46l.05-1.87h0c.27-9.31,7.76-16.8,17.07-17.07l1.87-.05c.81-.02,1.46-.69,1.46-1.5s-.65-1.48-1.46-1.5ZM409.59,282.11c-2.09-5.29-6.29-9.49-11.58-11.58,5.29-2.09,9.49-6.29,11.58-11.58,2.09,5.29,6.29,9.49,11.58,11.58-5.29,2.09-9.49,6.29-11.58,11.58Z"/>
      <path class="cls-1" d="M531.32,220.95l-17.86-1.8-1.78-17.86c-.08-.77-.72-1.35-1.49-1.35s-1.42.58-1.49,1.35l-1.8,17.87-17.86,1.8c-.77.08-1.35.72-1.35,1.49s.58,1.42,1.35,1.49l17.86,1.8,1.8,17.87c.08.77.72,1.35,1.49,1.35.77,0,1.42-.58,1.49-1.35l1.78-17.86,17.86-1.8c.77-.08,1.35-.72,1.35-1.49s-.58-1.42-1.35-1.49ZM510.59,224.22l-.42,4.21-.42-4.21c-.07-.71-.63-1.27-1.34-1.34l-4.28-.43,4.28-.43c.71-.07,1.27-.63,1.34-1.34l.42-4.21.42,4.21c.07.71.63,1.27,1.34,1.34l4.28.43-4.28.43c-.71.07-1.27.63-1.34,1.34Z"/>
      <path class="cls-1" d="M225.78,107c-3.53,0-6.39,2.86-6.39,6.39s2.86,6.39,6.39,6.39,6.39-2.86,6.39-6.39-2.86-6.39-6.39-6.39ZM225.78,116.78c-1.87,0-3.39-1.52-3.39-3.39s1.52-3.39,3.39-3.39,3.39,1.52,3.39,3.39-1.52,3.39-3.39,3.39Z"/>
      <path class="cls-1" d="M363.97,55.8c-3.53,0-6.39,2.86-6.39,6.39s2.86,6.39,6.39,6.39,6.39-2.86,6.39-6.39-2.86-6.39-6.39-6.39ZM363.97,65.58c-1.87,0-3.39-1.52-3.39-3.39s1.52-3.39,3.39-3.39,3.39,1.52,3.39,3.39-1.52,3.39-3.39,3.39Z"/>
      <path class="cls-1" d="M445.02,196.35c-3.3,0-5.97,2.67-5.97,5.97s2.67,5.97,5.97,5.97,5.97-2.67,5.97-5.97-2.67-5.97-5.97-5.97ZM445.02,205.29c-1.64,0-2.97-1.33-2.97-2.97s1.33-2.97,2.97-2.97,2.97,1.33,2.97,2.97-1.33,2.97-2.97,2.97Z"/>
      <path class="cls-1" d="M341.47,280.47c-3.3,0-5.97,2.67-5.97,5.97s2.67,5.97,5.97,5.97,5.97-2.67,5.97-5.97-2.67-5.97-5.97-5.97ZM341.47,289.41c-1.64,0-2.97-1.33-2.97-2.97s1.33-2.97,2.97-2.97,2.97,1.33,2.97,2.97-1.33,2.97-2.97,2.97Z"/>
    </g>
  </g>
</svg>