<?xml version="1.0" encoding="UTF-8"?>
<svg id="Camada_2" data-name="Camada 2" xmlns="http://www.w3.org/2000/svg" viewBox="0 0 128.93 115.04">
  <defs>
    <style>
      .cls-1 {
        fill: #fff;
      }

      .cls-2 {
        fill: #c69c6d;
      }

      .cls-3 {
        fill: #8aa47f;
      }
    </style>
  </defs>
  <g id="Camada_1-2" data-name="Camada 1">
    <g>
      <path class="cls-3" d="M39.4,104.77c4.56.91,18.37,5.16,22.82,6.49,7.54,2.25,14.96,4.27,22.85,3.68,8.79-.65,17.11-3.76,23.14-10.02s8.01-14.11,6.09-22.11l-2.28-9.48c-1.18-4.91-.07-9.91,3.48-13.53l6.32-6.45c8.06-8.23,9.05-20.46,4.03-30.82-6.35-13.1-20.92-19.55-34.36-12.3-22.87,12.34-33.28-16.41-67.43,5.8-7.13,4.64-14.59,19.33-15.71,27.79-2.22,16.7-16.51,51.48,31.05,60.94Z"/>
      <path class="cls-1" d="M60.85,47.23c-6.44-.02-11.67,5.19-11.69,11.63-.02,6.44,5.19,11.67,11.63,11.69,6.44.02,11.67-5.19,11.69-11.63.02-6.44-5.19-11.67-11.63-11.69ZM60.79,51.33c4.18-.02,7.58,3.36,7.6,7.54.02,4.18-3.36,7.58-7.54,7.6-4.18.02-7.58-3.36-7.6-7.54-.02-4.18,3.36-7.58,7.54-7.6ZM70.26,46.76c0-1.5,1.22-2.72,2.72-2.72s2.72,1.22,2.72,2.72-1.22,2.72-2.72,2.72-2.72-1.22-2.72-2.72ZM83.41,49.51c-.17-3.64-1-6.87-3.67-9.52-2.66-2.66-5.88-3.49-9.52-3.67-3.75-.21-15-.21-18.75,0-3.63.17-6.86,1-9.52,3.66-2.67,2.66-3.49,5.88-3.67,9.52-.21,3.75-.21,15,0,18.75.17,3.64,1,6.87,3.67,9.52,2.67,2.66,5.88,3.49,9.52,3.67,3.75.21,15,.21,18.75,0,3.64-.17,6.87-1,9.52-3.67,2.66-2.66,3.49-5.88,3.67-9.52.21-3.75.21-14.99,0-18.74ZM78.57,72.28c-.79,1.99-2.32,3.52-4.32,4.32-2.99,1.19-10.09.91-13.4.91s-10.42.26-13.4-.91c-1.99-.79-3.52-2.32-4.32-4.32-1.19-2.99-.91-10.09-.91-13.4s-.26-10.42.91-13.4c.79-1.99,2.32-3.52,4.32-4.32,2.99-1.19,10.09-.91,13.4-.91s10.42-.26,13.4.91c1.99.79,3.52,2.32,4.32,4.32,1.19,2.99.91,10.09.91,13.4s.27,10.42-.91,13.4Z"/>
      <path class="cls-2" d="M68.14,109.25c-4.95,0-9.73-.76-14.56-1.64l-2.46-.45c-5.46-1.01-15.64-2.88-19.35-3.18-13.76-1.09-23.15-5.18-27.91-12.16-7.28-10.67-2.63-26.02.76-37.22.79-2.62,1.54-5.1,2.05-7.21,2.08-8.68,11.15-23.91,18.77-29.3C46.13,3.45,57.68,5.76,67.88,7.8c7.93,1.59,14.78,2.96,24.89-3.23,7.25-4.44,14.87-5.7,21.46-3.54,5.65,1.85,10.08,6.07,12.46,11.88,4.2,10.24,1.3,22.53-7.38,31.31l-6.93,7c-3.57,3.61-5.26,8.29-4.61,12.82l1.27,8.93c1.11,7.83-2.01,16.17-8.56,22.88-6.31,6.46-14.74,10.84-24.38,12.67-2.72.51-5.36.72-7.96.72ZM55.84,7.97c-7.53,0-16.55,2.39-29.42,11.5-7.22,5.11-16.13,20.09-18.1,28.31-.52,2.16-1.27,4.66-2.08,7.31-3.29,10.88-7.8,25.77-.98,35.77,4.46,6.53,13.42,10.38,26.64,11.42,3.8.3,14.03,2.19,19.52,3.2l2.45.45c7.47,1.35,14.28,2.35,21.9.92,9.29-1.76,17.41-5.97,23.48-12.18,6.18-6.33,9.13-14.15,8.1-21.46l-1.27-8.93c-.72-5.07,1.14-10.26,5.09-14.26l6.93-7c8.2-8.29,10.96-19.86,7.02-29.47-2.19-5.34-6.25-9.22-11.42-10.91-6.11-2-13.23-.8-20.05,3.37-10.68,6.54-18.18,5.04-26.11,3.45-3.72-.74-7.48-1.5-11.71-1.5Z"/>
    </g>
  </g>
</svg>