<?xml version="1.0" encoding="UTF-8"?>
<svg id="Camada_2" data-name="Camada 2" xmlns="http://www.w3.org/2000/svg" viewBox="0 0 367.06 147.64">
  <defs>
    <style>
      .cls-1 {
        fill: #8aa47f;
      }
    </style>
  </defs>
  <g id="Camada_2-2" data-name="Camada 2">
    <path class="cls-1" d="M11.72,20.98c-3.01,0-5.54-1-7.55-3.01-2.03-2.02-3.05-4.5-3.05-7.47s1.02-5.46,3.05-7.47C6.2,1,8.71,0,11.72,0s5.54,1,7.55,3.01c2.02,2.02,3.05,4.5,3.05,7.47s-1.02,5.48-3.05,7.47c-2.03,2.02-4.56,3.01-7.55,3.01ZM0,47.1l21.21-8.04v88.42c0,3.72.18,6.69.57,8.92.37,2.23.86,3.99,1.45,5.24.59,1.27,1.19,2.09,1.78,2.45.59.37,1.04.57,1.33.57v2.02H.22v-2.02c.45,0,.96-.18,1.57-.57.59-.37,1.15-1.19,1.68-2.45.53-1.27,1-3.01,1.45-5.24.45-2.23.67-5.2.67-8.92V58.49c-.59-4.01-1.41-6.61-2.45-7.81-1.04-1.19-1.86-1.78-2.47-1.78l-.67-1.78v-.02Z"/>
    <path class="cls-1" d="M96.23,72.11c-5.95,0-11.58.74-16.85,2.23-5.28,1.49-9.9,3.8-13.83,6.93-3.95,3.13-7.06,7.06-9.37,11.84-2.31,4.77-3.46,10.35-3.46,16.75,0,3.13.33,6.24,1,9.37s1.78,6.03,3.35,8.71c1.57,2.68,3.54,4.99,5.91,6.93,2.39,1.94,5.28,3.21,8.71,3.8,3.58.74,6.93.59,10.04-.45,3.13-1.04,6.03-2.56,8.71-4.58,2.68-2.02,5.03-4.42,7.02-7.26,2-2.84,3.6-5.73,4.79-8.71,1.33-3.58,2.27-7.4,2.8-11.51.53-4.09.57-8.18.12-12.29-.45-4.09-1.41-8-2.9-11.72s-3.5-7.06-6.03-10.04ZM139.55,146.68h-20.76v-64.3c0-4.01-.2-8.49-.57-13.4-.37-4.91-1.31-9.53-2.8-13.85-1.49-4.32-3.76-7.92-6.81-10.82-3.05-2.9-7.26-4.34-12.62-4.34s-10.02.78-13.95,2.35c-3.95,1.57-7.1,3.39-9.49,5.48-2.39,2.09-3.95,4.17-4.7,6.24-.74,2.09-.59,3.72.45,4.91.59.74,1.6,1.31,3.01,1.68,1.41.37,3.01.7,4.79,1,1.78.29,3.68.61,5.69.9,2.02.29,3.91.82,5.69,1.57,4.91,1.94,8.82,5.03,11.72,9.27,2.9,4.25,4.95,8.96,6.14,14.19,1.19,5.2,1.64,10.57,1.33,16.08-.29,5.5-1.33,10.35-3.13,14.52-3.42,8.63-8.49,15.77-15.18,21.43-6.69,5.65-13.99,8.34-21.87,8.04-7.44-.29-13.48-2.35-18.08-6.14-4.62-3.8-7.79-8.49-9.49-14.07-1.72-5.58-1.9-11.6-.57-18.08,1.33-6.48,4.21-12.5,8.59-18.08,4.38-5.58,10.41-10.31,18.08-14.19,7.67-3.87,17-6.03,28.02-6.48.29-.16.82-.22,1.57-.22-2.23-1.94-4.83-3.5-7.81-4.7-2.68-1.04-5.58-1.7-8.71-2.02-3.13-.29-6.07-.37-8.82-.22-2.76.16-5.2.37-7.38.67-2.15.29-3.54.53-4.13.67-.45-2.23.18-4.87,1.9-7.92,1.7-3.05,4.25-5.95,7.59-8.71,3.35-2.76,7.44-5.05,12.29-6.93,4.83-1.86,10.31-2.8,16.42-2.8,7.14,0,13.17,1.12,18.1,3.35,4.93,2.23,8.9,5.28,11.92,9.16,3.01,3.87,5.17,8.53,6.46,13.95,1.29,5.44,1.92,11.27,1.92,17.53v45.1c0,3.72.18,6.69.57,8.92.37,2.23.86,3.99,1.45,5.24.59,1.27,1.19,2.09,1.78,2.45.59.37,1.04.57,1.35.57v2.02l.04-.02Z"/>
    <path class="cls-1" d="M258.53,119.89l-10.27,25.01-.9,1.78h-96.89v-2.02c.9,0,1.98-.37,3.23-1.12,1.27-.74,2.52-1.6,3.8-2.56,1.27-.96,2.39-1.94,3.35-2.9.96-.96,1.68-1.74,2.11-2.35l.22-.22,64.53-84.63c2.07-2.68,3.31-4.99,3.68-6.93.37-1.94-.49-2.9-2.56-2.9h-28.35c-3.58,0-7.18.63-10.82,1.9-3.66,1.27-7.1,3.01-10.39,5.24-3.27,2.23-6.24,4.87-8.92,7.92-2.68,3.05-4.77,6.36-6.24,9.94h-2.23l10.49-25.22.67-1.78h87.97v2.02c-.9,0-1.94.37-3.13,1.12-1.19.74-2.43,1.6-3.68,2.56-1.27.98-2.43,1.94-3.46,2.9-1.04.98-1.78,1.76-2.23,2.35v.22l-64.74,84.63c-2.09,2.68-3.31,4.99-3.68,6.93-.37,1.94.57,2.9,2.8,2.9h37.29c3.42,0,6.95-.63,10.6-1.9,3.64-1.27,7.1-2.97,10.39-5.13,3.27-2.15,6.24-4.75,8.92-7.81,2.68-3.05,4.83-6.36,6.48-9.94h2.02l-.02-.02Z"/>
    <path class="cls-1" d="M367.04,146.68h-20.76v-57.61c-1.04,6.69-2.31,12.8-3.8,18.31-1.49,5.5-3.21,10.43-5.13,14.73-1.49,3.13-3.21,6.18-5.13,9.16-1.94,2.97-4.21,5.69-6.81,8.14-2.6,2.47-5.44,4.42-8.49,5.91-3.05,1.49-6.44,2.23-10.15,2.23-6.1,0-11.05-1.27-14.85-3.8-3.8-2.52-6.77-5.81-8.92-9.82-2.15-4.01-3.64-8.55-4.46-13.62-.82-5.05-1.23-10.12-1.23-15.18v-46.88c0-3.72-.22-6.69-.67-8.92s-.94-3.93-1.45-5.13c-.53-1.19-1.08-2.02-1.68-2.47-.59-.45-1.04-.67-1.33-.67v-2.02h20.76v66.1c0,2.68.14,5.91.45,9.71.29,3.8.92,7.51,1.9,11.17.96,3.66,2.39,6.97,4.25,9.94,1.86,2.97,4.36,4.99,7.47,6.03,3.13,1.04,6.18,1.04,9.16,0,2.97-1.04,5.69-2.68,8.14-4.91,2.47-2.23,4.66-4.75,6.59-7.59,1.94-2.82,3.5-5.5,4.7-8.04,3.27-7.14,5.87-15.89,7.81-26.24,1.94-10.35,2.9-22.66,2.9-36.94,0-3.72-.22-6.69-.67-8.92s-.94-3.93-1.45-5.13c-.53-1.19-1.08-2.02-1.68-2.47-.59-.45-1.04-.67-1.33-.67v-2.02h20.76v88.42c0,3.72.18,6.69.57,8.92.37,2.23.86,3.99,1.45,5.24.59,1.27,1.19,2.09,1.78,2.45.59.37,1.04.57,1.33.57v2.02l-.02-.02Z"/>
  </g>
</svg>