<?xml version="1.0" encoding="UTF-8"?>
<svg id="Camada_2" data-name="Camada 2" xmlns="http://www.w3.org/2000/svg" viewBox="0 0 125.54 115.05">
  <defs>
    <style>
      .cls-1 {
        fill: #fff;
      }

      .cls-2 {
        fill: #c69c6d;
      }

      .cls-3 {
        fill: #8aa47f;
      }
    </style>
  </defs>
  <g id="Camada_1-2" data-name="Camada 1">
    <g>
      <path class="cls-3" d="M88.46,109c-16.85,2.95-40.97,7.99-55.84,5.28-15.18-2.76-25.16-15.09-23.84-29.77.49-5.47,2.13-10.58,4.46-15.63,2.86-6.19,4.31-12.35,4.79-19.17.89-12.6.42-29.33,8.95-38.13,6.18-6.38,16.33-9.02,25.07-6.27,9.1,2.87,15.78,9.08,20.89,16.49,10.71,15.53,21.99,13.3,34.01,18.47,6.59,2.83,11.61,7.56,14.59,13.89,5.86,12.46,5.21,26.79-1.66,38.72-6.59,11.45-18.07,13.79-31.43,16.13Z"/>
      <path class="cls-2" d="M29.19,112.09c-3.57,0-6.86-.24-9.74-.79-7.07-1.36-12.81-5.09-16.15-10.51-3.47-5.62-4.23-12.8-2.14-20.21,1.45-5.12,3.83-10.14,7.49-15.8,3.82-5.89,6.45-11.88,8.28-18.85.47-1.79.93-3.67,1.4-5.59,2.89-11.78,6.16-25.12,14.98-32.81C40.96.88,51.65-1.69,59.93,1.13c7.75,2.64,13.58,8.16,17.8,16.86,5.19,10.68,12.33,12.65,19.9,14.74,3.11.86,6.33,1.75,9.5,3.26,6.16,2.94,10.33,7.91,12.08,14.37,3.39,12.55-.06,27.24-9.23,39.3-9.15,12.04-22.02,14.25-34.46,16.39h0c-1.94.33-3.98.69-6.1,1.07-12.85,2.27-28.14,4.97-40.24,4.97ZM52.9,1.73c-6.33,0-13.26,2.55-18.47,7.09-8.42,7.33-11.62,20.4-14.45,31.93-.47,1.93-.94,3.82-1.41,5.62-1.88,7.14-4.58,13.29-8.5,19.34-3.57,5.51-5.88,10.38-7.28,15.34-1.96,6.95-1.27,13.64,1.95,18.85,3.09,5.01,8.43,8.47,15.03,9.73,12.3,2.36,32.85-1.27,49.36-4.19,2.11-.37,4.16-.73,6.1-1.07h0c14.89-2.56,25.25-5.04,33.39-15.74,8.85-11.64,12.19-25.78,8.94-37.82-1.63-6.06-5.39-10.53-11.17-13.28-3.03-1.45-6.17-2.31-9.21-3.15-7.6-2.1-15.45-4.26-20.98-15.64-4.02-8.27-9.52-13.5-16.82-15.99-2.01-.69-4.21-1.02-6.48-1.02Z"/>
      <path class="cls-1" d="M77.06,42.77c-4.25-4.26-9.91-6.6-15.93-6.6-12.42,0-22.52,10.11-22.52,22.52,0,3.97,1.03,7.84,3,11.26l-3.2,11.67,11.94-3.14c3.29,1.8,6.99,2.74,10.76,2.74h.01c12.41,0,22.74-10.11,22.74-22.52,0-6.02-2.56-11.67-6.81-15.93ZM61.13,77.43c-3.37,0-6.67-.9-9.54-2.61l-.68-.41-7.08,1.86,1.89-6.91-.45-.71c-1.88-2.98-2.86-6.42-2.86-9.96,0-10.32,8.4-18.72,18.73-18.72,5,0,9.7,1.95,13.23,5.49,3.53,3.54,5.7,8.24,5.69,13.24,0,10.33-8.61,18.73-18.93,18.73ZM71.4,63.41c-.56-.28-3.33-1.64-3.85-1.83-.52-.19-.89-.28-1.27.28-.38.57-1.45,1.83-1.79,2.21-.32.38-.66.43-1.22.14-3.31-1.65-5.48-2.95-7.66-6.7-.58-.99.58-.92,1.65-3.07.18-.38.09-.7-.05-.98s-1.27-3.05-1.73-4.18c-.46-1.1-.92-.94-1.27-.96-.32-.02-.7-.02-1.08-.02s-.98.14-1.5.7c-.52.57-1.97,1.93-1.97,4.7s2.02,5.45,2.29,5.82c.28.38,3.97,6.06,9.62,8.5,3.57,1.54,4.97,1.67,6.76,1.41,1.09-.16,3.33-1.36,3.79-2.68s.47-2.45.32-2.68c-.13-.25-.51-.4-1.07-.67Z"/>
    </g>
  </g>
</svg>