<?xml version="1.0" encoding="UTF-8"?>
<svg id="Camada_2" data-name="Camada 2" xmlns="http://www.w3.org/2000/svg" viewBox="0 0 610.68 659.76">
  <defs>
    <style>
      .cls-1 {
        fill: #e6efe6;
      }
    </style>
  </defs>
  <g id="Camada_1-2" data-name="Camada 1">
    <g>
      <path class="cls-1" d="M272.38,556.2c-42.62,0-75.14-12.96-104.85-41.62-13.55-13.08-25.36-28.32-35.36-41.58-2.14-2.83-4.27-5.68-6.41-8.54-8.83-11.79-17.95-23.99-27.92-35.6-8.6-10.02-19.47-18.02-30.96-26.48-1.27-.93-2.54-1.87-3.81-2.81-13.33-9.87-26.08-19.88-35.49-33.79C3.03,329.51-5.52,283.61,3.5,236.53c8.71-45.45,33.37-86.7,67.67-113.17,43.49-33.57,99.1-41.31,138.08-41.9,35.66-.54,84,5.63,111.53,20.59,59.09,32.14,76.84,74.88,97.4,124.37,3.61,8.68,7.33,17.66,11.4,26.88,5.98,13.58,13.84,26.36,22.15,39.9,1.31,2.13,2.62,4.27,3.93,6.42,9.28,15.22,18.83,31.58,24.66,49.56l-2.85.92,2.85-.92c9.05,27.95,4.88,61.28-11.74,93.85-14.98,29.36-39.36,56.62-66.88,74.8-19.22,12.7-42.43,23.09-67.13,30.05-17.53,4.95-36.61,7.72-56.7,8.24-1.85.05-3.69.07-5.51.07ZM214.23,87.42c-1.62,0-3.25.01-4.89.04-38.07.57-92.32,8.09-134.5,40.65-33.16,25.59-57.01,65.51-65.45,109.55-8.72,45.51-.5,89.82,23.14,124.76,8.88,13.12,21.2,22.78,34.1,32.33,1.27.94,2.54,1.87,3.8,2.8,11.78,8.67,22.91,16.87,31.96,27.41,10.1,11.76,19.28,24.04,28.17,35.91,2.13,2.85,4.26,5.69,6.39,8.52,9.87,13.08,21.5,28.09,34.74,40.87,29.72,28.68,62.44,40.97,106.04,39.88,19.59-.5,38.17-3.2,55.22-8.02,24.11-6.8,46.74-16.93,65.45-29.29,26.69-17.62,50.32-44.05,64.85-72.52,15.89-31.15,19.93-62.85,11.37-89.28h0c-5.62-17.36-14.97-33.37-24.07-48.29-1.31-2.14-2.62-4.28-3.92-6.4-8.43-13.71-16.39-26.67-22.53-40.62-4.09-9.28-7.83-18.29-11.45-27-20.95-50.44-37.5-90.28-94.73-121.41-18.5-10.06-57.39-19.9-103.69-19.9Z"/>
      <path class="cls-1" d="M280.38,597.4c-2.71,0-5.39-.06-8.07-.18-23.01-1.03-47.9-6.27-71.97-15.15-17.09-6.3-34.15-15.27-50.71-26.66-37.36-25.73-57.36-56.11-64.84-98.49-3.28-18.55-3.87-37.82-4.17-54.42-.06-3.55-.11-7.11-.17-10.68-.21-14.73-.42-29.96-1.66-45.2-1.07-13.16-5.15-26.01-9.48-39.62-.48-1.5-.96-3.01-1.43-4.53-4.98-15.82-9.41-31.42-8.85-48.2,1.47-43.76,21.54-85.92,56.51-118.7,33.76-31.65,77.97-50.52,121.27-51.77,54.92-1.58,104.45,24.83,136.33,47.28,29.18,20.54,64.65,53.94,78.12,82.22h0c28.91,60.73,18.14,105.75,5.68,157.88-2.19,9.14-4.45,18.59-6.58,28.44-3.14,14.5-4.3,29.46-5.53,45.3-.19,2.49-.39,4.99-.59,7.5-1.44,17.77-3.33,36.62-9.19,54.59-9.11,27.93-32.07,52.44-64.67,69.02-27,13.73-59.37,21.37-90.01,21.37ZM241.57,89.73c-1.52,0-3.04.02-4.57.07-41.86,1.21-84.63,19.48-117.34,50.15-33.81,31.69-53.21,72.37-54.62,114.53-.53,15.83,3.75,30.89,8.58,46.2.48,1.51.95,3.01,1.43,4.51,4.43,13.94,8.62,27.11,9.74,40.95,1.25,15.45,1.47,30.78,1.68,45.6.05,3.56.1,7.11.16,10.66.29,16.38.88,35.36,4.08,53.49,7.18,40.67,26.41,69.84,62.34,94.59,16.14,11.11,32.76,19.85,49.38,25.98,23.5,8.67,47.76,13.79,70.16,14.79,31.96,1.43,66.61-6.05,95.09-20.54,31.17-15.85,53.07-39.13,61.68-65.54,5.66-17.35,7.51-35.8,8.92-53.21.2-2.5.4-5,.59-7.48,1.25-16.05,2.42-31.21,5.65-46.1,2.15-9.91,4.41-19.39,6.61-28.56,12.7-53.12,22.73-95.09-5.26-153.9h0c-9.37-19.68-36.55-52.01-76.15-79.9-30.24-21.29-76.68-46.25-128.14-46.25Z"/>
      <path class="cls-1" d="M340.85,504.33c-40.75,0-78.92-13.08-106.28-25.72-32.4-14.96-73.29-41.43-91.62-66.84-39.36-54.55-36.86-100.77-33.97-154.28.51-9.38,1.03-19.09,1.36-29.16.49-14.83-1.06-29.76-2.7-45.56-.26-2.49-.52-4.98-.77-7.48-1.78-17.74-3.31-36.62-.77-55.35,3.94-29.11,22.12-57.35,51.2-79.53C183.52,20.42,217.29,6.4,249.97,1.93c22.82-3.13,48.24-2.45,73.52,1.96,17.87,3.11,36.18,8.83,54.43,17.01l.25.11c41.38,18.6,66.51,44.88,81.49,85.23,6.56,17.66,10.6,36.51,13.88,52.79.7,3.47,1.39,6.95,2.07,10.45,2.85,14.46,5.8,29.41,9.76,44.2,3.42,12.76,9.75,24.66,16.44,37.27.74,1.39,1.48,2.79,2.22,4.2,7.75,14.67,14.91,29.21,17.37,45.82h0c6.42,43.31-5.74,88.39-34.25,126.93-27.52,37.2-67.61,63.71-109.99,72.72-12.19,2.59-24.37,3.72-36.33,3.72ZM279.34,6c-9.83,0-19.41.62-28.56,1.88-31.68,4.33-64.43,17.93-89.85,37.3-27.81,21.2-45.17,48.03-48.9,75.56-2.45,18.08-.95,36.56.8,53.95.25,2.5.51,4.98.76,7.46,1.66,16.01,3.23,31.14,2.73,46.37-.33,10.14-.86,19.88-1.36,29.29-2.95,54.54-5.27,97.62,32.84,150.45,12.75,17.67,45.3,44.6,89.27,64.91,34.57,15.97,86.71,32.67,138.85,21.58,40.96-8.71,79.75-34.38,106.42-70.42,27.56-37.25,39.33-80.75,33.14-122.48h0c-2.33-15.67-9.25-29.71-16.74-43.9-.74-1.4-1.48-2.79-2.22-4.18-6.86-12.92-13.35-25.11-16.94-38.53-4.01-14.98-6.98-30.03-9.85-44.59-.69-3.48-1.37-6.96-2.07-10.42-3.23-16.06-7.22-34.63-13.62-51.88-14.36-38.67-38.47-63.9-78.18-81.78l-.15-.07c-17.88-8.03-35.8-13.64-53.25-16.68-14.52-2.53-29.07-3.81-43.12-3.81Z"/>
      <path class="cls-1" d="M428.43,659.76c-40.75,0-78.92-13.08-106.28-25.72-32.4-14.96-73.29-41.43-91.62-66.84-39.36-54.55-36.86-100.77-33.97-154.28.51-9.38,1.03-19.09,1.36-29.16.49-14.82-1.06-29.74-2.7-45.53-.26-2.49-.52-5-.77-7.51-1.78-17.74-3.31-36.62-.77-55.35,3.94-29.11,22.12-57.36,51.21-79.53,26.21-19.98,59.99-34,92.67-38.47,22.82-3.13,48.24-2.45,73.52,1.96l.11.02c17.91,3.13,36.27,8.88,54.57,17.1,41.38,18.6,66.51,44.88,81.49,85.23,6.56,17.66,10.6,36.51,13.88,52.79.7,3.48,1.39,6.96,2.08,10.46,2.85,14.46,5.8,29.4,9.76,44.18,3.42,12.76,9.75,24.66,16.44,37.27.74,1.39,1.48,2.79,2.23,4.2,7.75,14.67,14.91,29.21,17.37,45.82h0c6.42,43.31-5.74,88.39-34.25,126.93-27.52,37.21-67.61,63.71-109.99,72.72-12.19,2.59-24.37,3.72-36.33,3.72ZM366.92,161.42c-9.83,0-19.41.62-28.56,1.88-31.68,4.33-64.43,17.93-89.85,37.3-27.81,21.2-45.17,48.03-48.9,75.56-2.45,18.08-.95,36.56.8,53.95.25,2.51.51,5,.77,7.49,1.66,16,3.23,31.12,2.73,46.35-.33,10.14-.86,19.87-1.36,29.29-2.95,54.54-5.28,97.62,32.84,150.45,12.75,17.67,45.3,44.6,89.28,64.91,34.57,15.97,86.71,32.68,138.85,21.58,40.96-8.71,79.75-34.38,106.42-70.42,27.56-37.25,39.33-80.75,33.14-122.48-2.33-15.68-9.25-29.71-16.74-43.9-.74-1.4-1.48-2.8-2.22-4.18-6.86-12.92-13.35-25.11-16.94-38.53-4.01-14.98-6.98-30.02-9.85-44.58-.69-3.49-1.38-6.97-2.07-10.44-3.23-16.05-7.22-34.63-13.62-51.88-14.38-38.72-38.53-63.96-78.33-81.84-17.88-8.03-35.79-13.64-53.25-16.68l-.11-.02c-14.48-2.52-29-3.79-43.01-3.79Z"/>
    </g>
  </g>
</svg>