<?xml version="1.0" encoding="UTF-8"?>
<svg id="Camada_2" data-name="Camada 2" xmlns="http://www.w3.org/2000/svg" viewBox="0 0 672.15 562.07">
  <defs>
    <style>
      .cls-1 {
        fill: #e6efe6;
      }
    </style>
  </defs>
  <g id="Camada_1-2" data-name="Camada 1">
    <g>
      <path class="cls-1" d="M253.3,70.8c33.46-24.78,66.61-33.37,106.81-27.83,18.34,2.53,36.59,7.78,52.25,12.51,3.35,1.01,6.7,2.04,10.06,3.07,13.88,4.25,28.22,8.65,42.88,12.09,12.66,2.97,25.89,3.02,39.9,3.07,1.54,0,3.09.01,4.65.02,16.28.1,32.18.65,47.76,6.24,40.62,14.58,74.37,46.12,95.02,88.81,19.94,41.21,24.88,88.36,13.54,129.35-14.36,51.98-53.44,90.46-83.7,113.58-27.67,21.16-69.25,44.35-99.67,48.45-65.31,8.78-104.42-14.89-149.71-42.31-7.94-4.81-16.16-9.78-24.78-14.75-12.69-7.32-26.39-12.93-40.89-18.86-2.28-.93-4.57-1.87-6.87-2.82-16.25-6.71-33.39-14.17-48.54-25.09l1.7-2.39-1.7,2.39c-23.57-16.97-39.93-45.9-46.07-81.47-5.54-32.06-2.46-67.91,8.44-98.37,7.61-21.27,19.7-43.03,34.99-62.92,10.84-14.13,24.18-27.42,39.65-39.51,1.43-1.11,2.86-2.2,4.28-3.26ZM575.06,409.86c1.27-.94,2.54-1.9,3.81-2.87,29.55-22.58,67.7-60.09,81.63-110.51,10.95-39.62,6.16-85.25-13.16-125.17-19.97-41.27-52.51-71.73-91.65-85.78-14.7-5.27-30.05-5.8-45.8-5.9-1.55,0-3.1-.02-4.64-.02-14.36-.05-27.92-.1-41.23-3.22-14.85-3.49-29.29-7.91-43.26-12.19-3.35-1.03-6.7-2.05-10.04-3.06-15.45-4.67-33.42-9.85-51.34-12.32-40.22-5.54-73.14,3.7-106.71,29.92-15.08,11.79-28.08,24.73-38.62,38.47-14.92,19.42-26.72,40.63-34.12,61.34-10.57,29.53-13.55,64.29-8.18,95.37,5.87,34.01,21.38,61.58,43.66,77.62h0c14.63,10.54,31.41,17.84,47.33,24.42,2.29.95,4.57,1.88,6.85,2.81,14.69,6.01,28.57,11.69,41.61,19.21,8.68,5,16.92,9.99,24.89,14.82,46.16,27.94,82.61,50.01,145.86,41.5,20.44-2.75,56.77-17.53,93.11-44.44Z"/>
      <path class="cls-1" d="M222.75,42.68c2.12-1.57,4.27-3.09,6.44-4.55,18.67-12.56,41.29-22.86,65.42-29.78C311.73,3.43,330.4.64,350.11.08c44.48-1.25,78.07,11.29,108.91,40.65,13.5,12.85,25.31,27.83,35.33,40.87,2.14,2.79,4.28,5.59,6.42,8.4,8.84,11.59,17.98,23.58,27.93,34.99,8.59,9.85,19.37,17.7,30.77,26,1.26.92,2.52,1.84,3.79,2.77,13.23,9.69,25.89,19.52,35.34,33.19,24.62,35.66,33.7,80.86,25.56,127.26-7.86,44.8-31.44,85.5-64.7,111.66-42.17,33.18-96.61,40.96-134.86,41.64-35,.62-82.51-5.32-109.74-20h0c-58.46-31.51-76.53-73.57-97.45-122.27-3.67-8.54-7.46-17.37-11.59-26.45-6.07-13.36-13.98-25.94-22.34-39.25-1.32-2.09-2.64-4.2-3.95-6.31-9.34-14.97-18.96-31.06-24.94-48.76-9.3-27.51-5.72-60.36,10.1-92.49,13.1-26.61,34.01-51.5,58.06-69.31ZM552.24,423.92c1.19-.88,2.37-1.78,3.54-2.71,32.15-25.29,54.95-64.69,62.57-108.09,7.87-44.86-.86-88.48-24.59-122.84-8.91-12.9-21.14-22.38-33.94-31.76-1.26-.93-2.52-1.84-3.78-2.76-11.69-8.51-22.73-16.55-31.76-26.91-10.08-11.56-19.28-23.63-28.18-35.3-2.14-2.8-4.27-5.6-6.41-8.38-9.88-12.85-21.52-27.62-34.7-40.17-29.59-28.17-61.87-40.2-104.64-39.01-19.21.54-37.4,3.25-54.06,8.04-23.55,6.76-45.61,16.79-63.78,29.02-25.93,17.44-48.71,43.53-62.54,71.61-15.12,30.73-18.61,61.97-9.81,87.98,5.78,17.09,15.19,32.84,24.34,47.51,1.31,2.11,2.63,4.2,3.95,6.29,8.48,13.49,16.48,26.23,22.72,39.96,4.15,9.13,7.96,17.99,11.64,26.56,21.32,49.64,38.17,88.85,94.78,119.36h0c18.94,10.21,59.32,20.13,106.83,19.29,36.28-.64,87.43-7.78,127.82-37.69Z"/>
      <path class="cls-1" d="M230.11,151.85c31.99-23.69,69.65-35.47,98.57-41.32,34.24-6.93,81.93-9.64,111.29-.09,63.02,20.51,88.28,58.72,117.54,102.97,5.13,7.76,10.43,15.78,16.11,23.99,8.35,12.08,18.36,23.05,28.96,34.67,1.67,1.83,3.34,3.66,5.01,5.5,11.85,13.07,24.17,27.21,33.21,43.58,14.06,25.44,16.42,58.48,6.65,93.02-8.81,31.13-27.06,61.92-50.08,84.46-16.07,15.75-36.42,29.99-58.86,41.17-15.85,7.91-33.6,14.01-52.74,18.11l-.26.06c-43.43,9.26-78.64,2.96-114.16-20.43-15.55-10.23-29.83-22.87-41.99-33.92-2.59-2.36-5.18-4.73-7.78-7.1-10.76-9.84-21.88-20.02-33.7-29.48-10.2-8.16-22.18-13.95-34.86-20.09-1.4-.68-2.81-1.36-4.22-2.04-14.72-7.16-28.91-14.57-40.63-26.35h0c-30.55-30.72-47.56-73.64-47.88-120.87-.31-45.59,15.54-89.98,43.5-121.78,8.04-9.15,16.94-17.13,26.32-24.07ZM571.91,512.47c7.72-5.71,14.87-11.78,21.31-18.09,22.32-21.86,40.01-51.71,48.55-81.89,9.34-33.03,7.16-64.46-6.13-88.52-8.73-15.8-20.79-29.63-32.4-42.45-1.67-1.84-3.33-3.67-5-5.49-10.74-11.77-20.87-22.89-29.46-35.3-5.71-8.25-11.04-16.31-16.18-24.09-29.81-45.09-53.36-80.71-114.39-100.58-20.42-6.65-61.82-9.14-108.3.26-36.54,7.39-87.31,24.41-121.69,63.54-27.02,30.74-42.35,73.7-42.05,117.87.31,45.65,16.7,87.09,46.13,116.68h0c11.06,11.11,24.76,18.26,39,25.19,1.41.68,2.81,1.36,4.21,2.04,12.99,6.28,25.27,12.22,35.99,20.8,11.97,9.58,23.17,19.83,34,29.74,2.59,2.37,5.18,4.74,7.76,7.09,12,10.89,26.07,23.35,41.25,33.35,34.05,22.41,67.83,28.46,109.53,19.61l.15-.03c18.76-4.01,36.13-9.96,51.62-17.69,12.89-6.42,25.06-13.87,36.09-22.03Z"/>
      <path class="cls-1" d="M69.82,79.14c31.99-23.69,69.65-35.47,98.57-41.32,34.24-6.93,81.93-9.64,111.29-.09,63.02,20.51,88.28,58.73,117.54,102.97,5.13,7.76,10.43,15.78,16.11,23.99,8.35,12.07,18.35,23.04,28.94,34.65,1.67,1.83,3.35,3.67,5.03,5.52,11.85,13.07,24.17,27.21,33.21,43.58,14.06,25.45,16.42,58.48,6.65,93.02-8.81,31.13-27.06,61.92-50.08,84.46-16.07,15.75-36.42,29.99-58.86,41.17l-.1.05c-15.9,7.92-33.7,14.02-52.9,18.12-43.43,9.26-78.64,2.96-114.17-20.42-15.55-10.24-29.83-22.88-41.99-33.92-2.6-2.36-5.19-4.73-7.79-7.11-10.75-9.84-21.87-20.01-33.69-29.47-10.2-8.16-22.18-13.95-34.86-20.08-1.4-.68-2.81-1.36-4.22-2.04-14.72-7.16-28.9-14.57-40.63-26.35h0C17.33,315.14.33,272.21,0,224.98c-.31-45.59,15.54-89.98,43.5-121.78,8.04-9.15,16.94-17.13,26.32-24.07ZM411.63,439.76c7.72-5.71,14.87-11.78,21.31-18.09,22.32-21.86,40.01-51.71,48.55-81.89,9.34-33.02,7.16-64.46-6.13-88.52-8.73-15.8-20.79-29.63-32.4-42.45-1.67-1.85-3.35-3.68-5.01-5.51-10.73-11.76-20.86-22.88-29.44-35.28-5.71-8.25-11.03-16.3-16.18-24.09-29.81-45.09-53.36-80.71-114.39-100.58-20.42-6.64-61.82-9.14-108.3.26-36.54,7.39-87.31,24.41-121.69,63.54C20.92,137.89,5.59,180.85,5.89,225.02c.31,45.65,16.69,87.09,46.13,116.68,11.06,11.12,24.76,18.26,39,25.19,1.41.69,2.81,1.36,4.21,2.04,12.99,6.28,25.27,12.22,35.99,20.8,11.97,9.58,23.16,19.82,33.99,29.73,2.59,2.37,5.18,4.74,7.78,7.1,11.99,10.89,26.06,23.35,41.25,33.35,34.09,22.44,67.92,28.48,109.68,19.57,18.76-4.01,36.13-9.96,51.62-17.69l.1-.05c12.85-6.41,24.99-13.84,35.99-21.99Z"/>
    </g>
  </g>
</svg>