<?xml version="1.0" encoding="UTF-8"?>
<svg id="Camada_2" data-name="Camada 2" xmlns="http://www.w3.org/2000/svg" viewBox="0 0 599.67 648.76">
  <defs>
    <style>
      .cls-1 {
        fill: #e6efe6;
      }
    </style>
  </defs>
  <g id="Camada_1-2" data-name="Camada 1">
    <g>
      <path class="cls-1" d="M267.13,545.19c-75.48,0-108.02-43.49-142.44-89.48-8.89-11.88-18.09-24.17-28.19-35.93-9.03-10.52-20.63-19.05-31.85-27.31-13.88-10.21-28.23-20.78-38.05-35.28C2.91,322.16-5.34,277.72,3.4,232.06c8.45-44.14,32.37-84.18,65.63-109.85h0c42.3-32.65,96.65-40.18,134.8-40.75,48.53-.72,89.62,9.48,108.82,19.93,57.31,31.17,73.89,71.02,94.87,121.49,3.64,8.74,7.4,17.78,11.53,27.15,6.14,13.94,14.47,27.49,22.52,40.59,10.7,17.4,21.76,35.4,28.03,54.77,18.69,57.71-24.18,127.87-76.42,162.37-18.75,12.39-41.43,22.54-65.59,29.35-17.09,4.83-35.71,7.53-55.34,8.04-1.72.04-3.43.06-5.1.06ZM208.74,84.42c-1.61,0-3.24.01-4.87.04-37.69.56-91.37,7.98-133.02,40.13h0C38.17,149.81,14.66,189.19,6.34,232.63c-8.59,44.87-.5,88.51,22.76,122.88,9.52,14.07,23.66,24.48,37.34,34.54,11.35,8.35,23.09,16.99,32.34,27.77,10.16,11.84,19.39,24.17,28.31,36.09,17.77,23.75,34.56,46.18,56.74,62.58,24.85,18.38,52.91,26.54,88.33,25.63,19.38-.5,37.76-3.16,54.61-7.92,23.86-6.73,46.25-16.75,64.75-28.97,51.31-33.87,93.47-102.59,75.22-158.94-6.16-19.02-17.12-36.87-27.73-54.12-8.1-13.19-16.48-26.82-22.71-40.95-4.14-9.4-7.91-18.45-11.55-27.21-20.76-49.91-37.15-89.34-93.54-120-18.22-9.91-56.63-19.6-102.47-19.6Z"/>
      <path class="cls-1" d="M274.83,586.4c-2.61,0-5.2-.06-7.77-.17-22.45-1-46.77-6.12-70.31-14.82-16.66-6.14-33.31-14.9-49.49-26.04-65.19-44.9-65.97-100.36-66.79-159.07-.21-14.84-.42-30.19-1.68-45.64-1.12-13.82-5.49-27.54-9.71-40.81-5.22-16.42-10.63-33.41-10.04-50.9,1.42-42.28,20.87-83.08,54.78-114.88,32.78-30.74,75.68-49.07,117.67-50.28h0c53.4-1.57,101.81,24.31,133.01,46.28,39.68,27.94,66.92,60.36,76.32,80.09,28.04,58.9,18.02,100.89,5.33,154.05-2.2,9.21-4.47,18.73-6.64,28.74-3.23,14.89-4.46,30.74-5.64,46.07-1.58,20.37-3.21,41.42-9.52,60.78-18.03,55.3-88.59,86.59-149.5,86.6ZM231.57,86.8c-41.27,1.19-83.45,19.22-115.7,49.47-33.32,31.25-52.44,71.3-53.83,112.79-.57,16.98,4.75,33.71,9.9,49.89,4.27,13.43,8.69,27.32,9.84,41.48,1.26,15.55,1.48,30.95,1.69,45.84.42,29.66.81,57.67,9.11,83.98,9.3,29.48,27.21,52.57,56.39,72.66,15.97,10.99,32.4,19.64,48.83,25.69,23.26,8.58,47.26,13.64,69.41,14.63,61.42,2.74,135.92-28.04,154.28-84.36,6.2-19.01,7.82-39.89,9.39-60.08,1.2-15.43,2.43-31.39,5.7-46.47,2.17-10.04,4.45-19.58,6.65-28.8,12.55-52.58,22.46-94.11-5.12-152.06-9.23-19.38-36.1-51.3-75.33-78.93-30.83-21.7-78.61-47.24-131.19-45.73h0Z"/>
      <path class="cls-1" d="M335.34,493.33c-39.77,0-77.15-12.83-103.97-25.22-44.06-20.35-76.68-47.34-89.47-65.07-38.17-52.91-35.86-96.01-32.93-150.58.51-9.46,1.03-19.23,1.36-29.47.5-15.22-1.14-31.04-2.73-46.33-2.11-20.32-4.29-41.33-1.56-61.5C114.17,55.05,183.19,10.36,245.21,1.88c22.27-3.05,47.11-2.38,71.83,1.93,17.5,3.04,35.45,8.67,53.37,16.71,72.2,32.45,82.93,86.86,94.3,144.47,2.87,14.56,5.84,29.62,9.85,44.59,3.59,13.39,10.35,26.11,16.89,38.4,8.09,15.22,16.46,30.95,19.03,48.27,6.21,41.85-5.6,85.48-33.23,122.85-26.72,36.14-65.62,61.88-106.71,70.61-11.8,2.51-23.6,3.6-35.19,3.6ZM273.84,3c-9.72,0-19.18.62-28.22,1.85-60.91,8.33-128.67,52.02-136.6,110.72-2.68,19.82-.52,40.65,1.57,60.79,1.6,15.4,3.25,31.32,2.74,46.74-.33,10.26-.86,20.06-1.37,29.53-2.89,53.98-5.18,96.62,32.37,148.67,12.56,17.41,44.73,43.98,88.3,64.1,34.22,15.81,85.82,32.35,137.28,21.41h0c40.39-8.59,78.63-33.91,104.93-69.46,27.16-36.73,38.77-79.57,32.68-120.63-2.49-16.8-10.74-32.31-18.71-47.3-6.62-12.45-13.46-25.31-17.14-39.04-4.04-15.07-7.02-30.18-9.9-44.79-5.74-29.1-11.16-56.59-24.06-80.98-14.44-27.33-36.22-46.82-68.53-61.34-17.69-7.94-35.4-13.49-52.65-16.5-14.38-2.51-28.79-3.77-42.69-3.77Z"/>
      <path class="cls-1" d="M422.91,648.76c-39.77,0-77.15-12.83-103.97-25.22-44.06-20.35-76.68-47.34-89.47-65.07-38.17-52.91-35.86-96.01-32.93-150.58.51-9.46,1.03-19.23,1.36-29.47.5-15.22-1.14-31.04-2.73-46.33-2.11-20.32-4.29-41.33-1.56-61.5,8.13-60.12,77.15-104.81,139.17-113.29,22.27-3.05,47.1-2.38,71.83,1.93,17.5,3.04,35.45,8.67,53.37,16.71,72.2,32.45,82.93,86.86,94.3,144.47,2.87,14.56,5.84,29.62,9.85,44.59,3.59,13.39,10.35,26.11,16.89,38.4,8.09,15.22,16.46,30.95,19.03,48.27,6.21,41.85-5.6,85.48-33.23,122.85-26.72,36.14-65.62,61.88-106.71,70.61-11.8,2.51-23.6,3.6-35.19,3.6ZM361.42,158.42c-9.72,0-19.18.62-28.22,1.85-60.91,8.33-128.67,52.02-136.6,110.72-2.68,19.82-.52,40.64,1.57,60.79,1.6,15.39,3.25,31.31,2.74,46.74-.33,10.26-.86,20.06-1.37,29.53-2.89,53.98-5.18,96.62,32.37,148.67,12.56,17.41,44.73,43.98,88.3,64.1,34.22,15.81,85.82,32.35,137.28,21.4h0c40.39-8.59,78.63-33.91,104.93-69.46,27.16-36.73,38.77-79.57,32.68-120.63-2.49-16.8-10.74-32.31-18.71-47.3-6.62-12.45-13.46-25.31-17.14-39.04-4.04-15.07-7.02-30.18-9.9-44.79-5.74-29.1-11.16-56.59-24.06-80.98-14.44-27.33-36.22-46.82-68.53-61.34-17.69-7.94-35.4-13.49-52.65-16.5-14.38-2.51-28.79-3.77-42.69-3.77Z"/>
    </g>
  </g>
</svg>